<?xml version="1.0" standalone="no"?>
<!DOCTYPE svg PUBLIC "-//W3C//DTD SVG 1.1//EN" "http://www.w3.org/Graphics/SVG/1.1/DTD/svg11.dtd" >
<svg>
<metadata>
Created by FontForge 20120731 at Tue Sep 20 09:42:30 2016
 By ,,,
(URW)++,Copyright 2003 by (URW)++ Design &#38; Development
</metadata>
<defs>
<font id="MartinGotURWTOT-Med" horiz-adv-x="500" >
  <font-face 
    font-family="MartinGotURWTOTMed"
    font-weight="500"
    font-stretch="normal"
    units-per-em="1000"
    panose-1="4 0 6 0 0 0 0 0 0 0"
    ascent="800"
    descent="-200"
    x-height="433"
    cap-height="667"
    bbox="-133 -260 1091 922"
    underline-thickness="76"
    underline-position="-37"
    unicode-range="U+0020-FB02"
  />
<missing-glyph horiz-adv-x="200" 
 />
    <glyph glyph-name="fi" unicode="fi" horiz-adv-x="426" 
d="M325 435h44q-5 -94 -5 -115v-213q0 -3 2 -49l4 -58h-101q6 58 6 107v241h-114v-253q0 -68 1 -95l-97 1l2 36q4 37 4 56v255l-57 -1l1 87l56 -1q-1 18 -1 44q0 81 30 131q46 73 130 73q34 0 71 -24l-38 -70q-18 7 -29 7q-25 0 -43 -18.5t-25 -50.5q-5 -23 -5 -92h119z" />
    <glyph glyph-name="fl" unicode="fl" horiz-adv-x="443" 
d="M291 667h95q-8 -92 -8 -121v-424q0 -84 4 -122h-102q10 89 10 130v418q-14 27 -25.5 37t-30.5 10q-25 0 -43 -18.5t-25 -51.5q-5 -23 -5 -95q47 3 111 3v-85h-111v-253q0 -68 1 -95h-97l2 37q4 37 4 56v257l-57 -3l1 86l56 -2q-2 40 -2 54q0 87 45.5 141.5t117.5 54.5
q28 0 41 -9q9 -5 12 -5h6z" />
    <glyph glyph-name=".notdef" horiz-adv-x="200" 
 />
    <glyph glyph-name=".null" horiz-adv-x="0" 
 />
    <glyph glyph-name="nonmarkingreturn" horiz-adv-x="333" 
 />
    <glyph glyph-name="space" unicode=" " horiz-adv-x="200" 
 />
    <glyph glyph-name="exclam" unicode="!" horiz-adv-x="226" 
d="M123 112q26 0 45.5 -19t19.5 -45q0 -25 -17.5 -42.5t-43.5 -17.5t-44.5 18.5t-18.5 44.5t17 43.5t42 17.5zM73 667h101l-8 -509h-85z" />
    <glyph glyph-name="quotedbl" unicode="&#x22;" horiz-adv-x="394" 
d="M152 393h-49l-16 274h81zM290 393h-48l-17 274h82z" />
    <glyph glyph-name="numbersign" unicode="#" horiz-adv-x="566" 
d="M502 278l-1 -59h-108l-34 -219h-59l33 219h-125l-34 -219h-59l34 219h-109l1 59h117l19 125h-108l1 58h116l32 206h59l-32 -206h126l31 206h60l-32 -206h100l-2 -58h-107l-19 -125h100zM362 403h-126l-19 -125h126z" />
    <glyph glyph-name="dollar" unicode="$" horiz-adv-x="540" 
d="M28 104l56 62q29 -40 71.5 -66.5t80.5 -28.5v212q-90 18 -130 53q-58 50 -58 124q0 85 70 139q44 34 118 49v38h69v-45q55 -7 93 -30t77 -73l-55 -67q-31 43 -54.5 60t-60.5 24v-196q97 -22 138 -61q50 -47 50 -119q0 -87 -64 -139q-44 -35 -124 -48v-95h-69v95
q-129 11 -208 112zM236 369v193q-47 -6 -75 -32.5t-28 -63.5q0 -43 30 -68q18 -14 73 -29zM305 272v-200q49 8 74 30q34 31 34 73q0 37 -25 59.5t-83 37.5z" />
    <glyph glyph-name="percent" unicode="%" horiz-adv-x="764" 
d="M194 680q62 0 108.5 -60.5t46.5 -142.5q0 -81 -46 -140t-110 -59q-65 0 -109.5 59.5t-44.5 145.5q0 78 47 137.5t108 59.5zM194 612q-39 0 -63.5 -38t-24.5 -99q0 -51 26.5 -90.5t61.5 -39.5q37 0 61.5 37.5t24.5 93.5q0 59 -24.5 97.5t-61.5 38.5zM581 382
q65 0 111.5 -59t46.5 -142t-46.5 -142.5t-110.5 -59.5q-60 0 -106 59t-46 137q0 87 43.5 147t107.5 60zM581 315q-34 0 -59.5 -37.5t-25.5 -87.5q0 -62 26 -103.5t65 -41.5q33 0 59.5 42.5t26.5 95.5t-27.5 92.5t-64.5 39.5zM208 -6h-88q110 156 252 372l60 90q35 51 86 129
l54 82h87q-92 -133 -152 -221q-66 -100 -99 -149q-40 -60 -150 -224q-34 -52 -50 -79z" />
    <glyph glyph-name="ampersand" unicode="&#x26;" horiz-adv-x="765" 
d="M604 164l-38 1q-16 -46 -30.5 -69.5t-40.5 -42.5q-75 -59 -187 -59q-121 0 -196 64t-75 167q0 77 46.5 128.5t116.5 51.5q17 0 45 -8q-47 63 -47 102q0 56 44 95.5t106 39.5q72 0 128 -51q22 -20 51 -65l-76 -52q-32 83 -100 83q-30 0 -48.5 -17t-18.5 -45q0 -47 68 -132
l-15 -25q-48 13 -73 13q-59 0 -98.5 -36t-39.5 -89q0 -62 50.5 -100.5t131.5 -38.5q63 0 108.5 24t59.5 64h-160q-9 0 -29 -3l18 92l50 -2q22 -1 65 -2.5t65 -2.5v10q0 40 -11 87l90 1l8 -101h13q34 0 47.5 9t13.5 32q0 17 -7 44l78 11q12 -36 12 -65q0 -51 -34.5 -82
t-90.5 -31z" />
    <glyph glyph-name="quotesingle" unicode="'" horiz-adv-x="197" 
d="M123 393h-49l-16 274h81z" />
    <glyph glyph-name="parenleft" unicode="(" horiz-adv-x="319" 
d="M257 668l35 -79q-57 -21 -87 -45t-55 -69q-47 -87 -47 -211q0 -86 20.5 -159.5t56.5 -116.5q19 -24 45.5 -41t76.5 -40l-32 -79q-74 33 -115 67.5t-73 89.5q-38 63 -54 163q-12 69 -12 129q0 82 26.5 163.5t70.5 133.5q22 28 53.5 48t90.5 46z" />
    <glyph glyph-name="parenright" unicode=")" horiz-adv-x="317" 
d="M49 -176l-31 81q47 16 72 30.5t45 37.5q81 90 81 269q0 177 -78 267q-21 25 -46 41.5t-72 36.5l30 80q75 -32 116 -67t76 -96q60 -108 60 -261q0 -207 -100 -322q-29 -33 -61 -53.5t-92 -43.5z" />
    <glyph glyph-name="asterisk" unicode="*" horiz-adv-x="359" 
d="M48 553l18 49l87 -36v101h55l-1 -98l90 28l14 -54l-91 -22l58 -69l-42 -29l-58 70l-57 -71l-44 37l57 62z" />
    <glyph glyph-name="plus" unicode="+" 
d="M10 374h208v195h65v-195h208v-65h-208v-195h-65v195h-208v65z" />
    <glyph glyph-name="comma" unicode="," horiz-adv-x="220" 
d="M65 -178l-67 24q39 112 83 276l103 -36q-53 -100 -119 -264z" />
    <glyph glyph-name="hyphen" unicode="-" horiz-adv-x="312" 
d="M41 210v92q20 -1 56 -1h115q38 0 57 1l1 -95q-27 4 -51 4h-125q-36 0 -53 -1z" />
    <glyph glyph-name="period" unicode="." horiz-adv-x="230" 
d="M116 112q25 0 43 -19t18 -46q0 -25 -16.5 -41t-42.5 -16q-28 0 -45.5 17.5t-17.5 44.5q0 26 17.5 43t43.5 17z" />
    <glyph glyph-name="slash" unicode="/" horiz-adv-x="317" 
d="M59 -32l116 698h83l-116 -698h-83z" />
    <glyph glyph-name="zero" unicode="0" horiz-adv-x="540" 
d="M269 653q95 0 161 -78q67 -77 67 -245q0 -158 -60.5 -248t-167.5 -90q-57 0 -104 28t-76 80q-45 81 -45 221q0 135 41 211q32 58 80 89.5t104 31.5zM270 570q-67 0 -104 -67.5t-37 -189.5q0 -115 38 -181q16 -27 45 -43.5t60 -16.5q67 0 103 66.5t36 190.5q0 109 -33 166
q-43 75 -108 75z" />
    <glyph glyph-name="one" unicode="1" horiz-adv-x="540" 
d="M131 489l-36 76q77 33 148 70q39 21 64 32l26 -19v-571q0 -2 0.5 -7t1 -14.5t0.5 -16.5l1 -39h-95q3 64 3 79v464z" />
    <glyph glyph-name="two" unicode="2" horiz-adv-x="540" 
d="M131 420l-82 30q17 78 61 125q68 75 167 75q85 0 141.5 -55t56.5 -138q0 -62 -32.5 -124.5t-105.5 -139.5q-68 -72 -129 -116h173q20 0 111 5v-82h-428l-11 40q133 119 162.5 146t64.5 67q107 120 107 203q0 48 -31 79t-80 31q-62 0 -101 -44q-29 -33 -44 -102z" />
    <glyph glyph-name="three" unicode="3" horiz-adv-x="540" 
d="M42 180l86 28q7 -58 30 -85q42 -50 114 -50q58 0 99 36t41 88q0 26 -13 48.5t-35 33.5q-44 25 -133 26l-9 45q148 44 148 132q0 38 -26 63t-66 25q-42 0 -70 -25q-24 -24 -47 -90l-80 28q29 85 65 118q55 52 134 52q76 0 126 -49t50 -123q0 -46 -19.5 -74t-71.5 -55
q64 -12 89 -36q44 -41 44 -118q0 -91 -64 -148t-165 -57q-107 0 -172 71q-22 24 -33.5 48t-21.5 68z" />
    <glyph glyph-name="four" unicode="4" horiz-adv-x="540" 
d="M47 163l-16 30q72 104 113 207.5t85 289.5l81 -32q-14 -96 -60 -220t-95 -197h171v288h86v-288h95v-78h-95v-163h-86v163h-279z" />
    <glyph glyph-name="five" unicode="5" horiz-adv-x="540" 
d="M41 105l71 53q25 -50 56 -68q42 -24 88 -24q67 0 112.5 46.5t45.5 115.5q0 62 -38 100.5t-99 38.5q-39 0 -71.5 -12.5t-80.5 -44.5l-32 26q23 54 30 88l30 134q13 57 19 87h303v-88q-83 3 -113 3h-127l-32 -132q65 19 97 19q82 0 141 -65t59 -157q0 -104 -70.5 -171.5
t-179.5 -67.5q-91 0 -150 48q-24 19 -59 71z" />
    <glyph glyph-name="six" unicode="6" horiz-adv-x="540" 
d="M264 673l70 -56q-136 -156 -162 -237q32 27 56 36t62 9q88 0 148 -61.5t60 -152.5q0 -95 -64 -158t-160 -63q-104 0 -167.5 61t-63.5 162q0 145 106 304q31 48 115 156zM274 344q-63 0 -103.5 -39t-40.5 -100q0 -59 40.5 -98t101.5 -39q62 0 101 39.5t39 101.5
q0 60 -38.5 97.5t-99.5 37.5z" />
    <glyph glyph-name="seven" unicode="7" horiz-adv-x="540" 
d="M51 646h421l16 -26l-261 -618h-108l254 558h-182q-40 0 -140 -8v94z" />
    <glyph glyph-name="eight" unicode="8" horiz-adv-x="540" 
d="M171 372q-43 27 -60.5 54.5t-17.5 65.5q0 67 54 114.5t130 47.5q74 0 123.5 -48t49.5 -119q0 -40 -16.5 -65t-60.5 -50q63 -25 87 -54q39 -48 39 -120q0 -91 -64.5 -150t-164.5 -59q-101 0 -165 55t-64 142q0 76 47 132q25 30 83 54zM272 328q-64 0 -104 -38t-40 -97
q0 -55 38 -89.5t100 -34.5q64 0 105.5 36.5t41.5 92.5q0 58 -39 94t-102 36zM276 574q-44 0 -70.5 -22.5t-26.5 -60.5q0 -37 25.5 -61t66.5 -24q43 0 69.5 22.5t26.5 59.5q0 38 -25.5 62t-65.5 24z" />
    <glyph glyph-name="nine" unicode="9" horiz-adv-x="540" 
d="M274 -30l-3 2l-66 56q69 80 99 123.5t66 114.5q-55 -46 -123 -46q-88 0 -145.5 61.5t-57.5 155.5q0 96 63 156.5t163 60.5q103 0 164 -63t61 -169q0 -113 -91 -267q-46 -79 -130 -185zM267 575q-60 0 -99.5 -39.5t-39.5 -99.5t38.5 -98t98.5 -38q61 0 102 39.5t41 98.5
q0 56 -41.5 96.5t-99.5 40.5z" />
    <glyph glyph-name="colon" unicode=":" horiz-adv-x="221" 
d="M126 113q24 0 41 -19t17 -45t-17 -43t-43 -17t-45 18.5t-19 43.5q0 26 19 44t47 18zM126 401q26 0 43 -18t17 -46q0 -25 -17 -41.5t-43 -16.5t-44 17t-18 42q0 27 17.5 45t44.5 18z" />
    <glyph glyph-name="semicolon" unicode=";" horiz-adv-x="220" 
d="M77 -181l-66 25q42 114 86 274l101 -37q-57 -112 -121 -262zM136 402q27 0 44 -17t17 -45q0 -27 -17 -44t-44 -17q-26 0 -44 18.5t-18 43.5q0 26 18 43.5t44 17.5z" />
    <glyph glyph-name="less" unicode="&#x3c;" 
d="M490 580v-70l-397 -172l397 -168v-71l-481 202v72z" />
    <glyph glyph-name="equal" unicode="=" 
d="M9 448h481v-65h-481v65zM9 300h481v-65h-481v65z" />
    <glyph glyph-name="greater" unicode="&#x3e;" 
d="M9 99v71l397 172l-397 168v70l481 -202v-72z" />
    <glyph glyph-name="question" unicode="?" horiz-adv-x="441" 
d="M96 497l-68 45q40 71 85 103t106 32q85 0 140 -60q38 -40 38 -119q0 -55 -21.5 -98t-70.5 -89q-26 -26 -31.5 -37.5t-5.5 -38.5v-77h-86v86q0 30 4 41q10 31 43 64q41 43 49 52.5t16 23.5q20 36 20 74q0 44 -25 69t-68 25q-39 0 -64 -19t-61 -77zM226 111
q25 0 43.5 -19.5t18.5 -45.5t-17 -43t-42 -17q-26 0 -46 18t-20 41q0 26 19 46t44 20z" />
    <glyph glyph-name="at" unicode="@" horiz-adv-x="698" 
d="M580 132h58q-54 -67 -97 -95q-73 -48 -179 -48q-153 0 -253.5 97t-100.5 245t101 247.5t251 99.5q138 0 229 -81.5t91 -204.5q0 -75 -33.5 -134.5t-94.5 -93.5q-52 -30 -93 -30q-23 0 -36 13.5t-13 37.5v6q-41 -53 -104 -53q-64 0 -103.5 45t-39.5 118q0 89 52 149
t129 60q82 0 115 -70l12 57h58l-48 -262q-5 -29 -5 -34q0 -18 18 -18q31 0 81 48q62 59 62 150q0 109 -77.5 180t-196.5 71q-126 0 -212 -86.5t-86 -212.5q0 -127 86.5 -213t214.5 -86q63 0 112 22.5t102 75.5zM351 446q-50 0 -84 -40.5t-34 -99.5q0 -47 26 -77t67 -30
q66 0 93 65q18 39 18 88q0 43 -23 68.5t-63 25.5z" />
    <glyph glyph-name="A" unicode="A" horiz-adv-x="565" 
d="M0 0l251 667h67l247 -667h-97l-86 233h-199l-82 -233h-101zM214 321h136l-69 187z" />
    <glyph glyph-name="B" unicode="B" horiz-adv-x="526" 
d="M64 97v565q93 17 143 17q105 0 171.5 -51t66.5 -132q0 -48 -26 -87q-15 -23 -59 -51q60 -22 87 -54q39 -47 39 -118q0 -55 -25.5 -99.5t-70.5 -70.5q-69 -38 -178 -38q-83 0 -157 26q9 43 9 93zM155 308v-241q42 -5 72 -5q80 0 125 33.5t45 93.5q0 59 -47 90.5t-134 31.5
q-18 0 -61 -3zM155 588v-197q47 -3 63 -3q65 0 102.5 26.5t37.5 72.5q0 47 -40.5 77.5t-104.5 30.5q-19 0 -58 -7z" />
    <glyph glyph-name="C" unicode="C" horiz-adv-x="664" 
d="M612 592l-54 -71q-47 42 -87 59t-91 17q-107 0 -182.5 -79t-75.5 -192q0 -108 72 -180.5t180 -72.5q59 0 103.5 19.5t90.5 65.5l55 -75q-69 -55 -122.5 -76t-122.5 -21q-147 0 -246 98t-99 244q0 151 100.5 253.5t247.5 102.5q94 0 166 -42q23 -12 65 -50z" />
    <glyph glyph-name="D" unicode="D" horiz-adv-x="625" 
d="M72 104v487q0 22 -3 76q91 15 136 15q106 0 181 -35q89 -43 142 -129.5t53 -189.5q0 -148 -99 -245.5t-250 -97.5q-90 0 -163 20q3 38 3 99zM165 596v-524q35 -4 54 -4q141 0 215 92q58 72 58 163q0 61 -22.5 114.5t-63.5 89.5q-78 69 -199 69h-42z" />
    <glyph glyph-name="E" unicode="E" horiz-adv-x="537" 
d="M70 0v667h426l-28 -88h-304v-189h147q78 0 134 2l-26 -88h-255v-220h196q38 0 150 7l-23 -91h-417z" />
    <glyph glyph-name="F" unicode="F" horiz-adv-x="537" 
d="M167 0h-97q1 12 1 24v52v591h447l-34 -84h-320v-200h175l77 2l43 1l-27 -87h-268v-201q0 -58 3 -98z" />
    <glyph glyph-name="G" unicode="G" horiz-adv-x="752" 
d="M670 546l-64 -64q-48 58 -96 83q-62 31 -127 31q-110 0 -186 -75.5t-76 -185.5q0 -113 74.5 -190t183.5 -77q103 0 174 66q37 35 65 101h-178q-3 0 -9 -0.5t-17 -1t-20 -0.5l-41 -1v91h28l56 -2h284q-5 -67 -17.5 -109t-41.5 -85q-47 -68 -120.5 -106t-161.5 -38
q-149 0 -248.5 99.5t-99.5 248.5q0 150 102 251t253 101q82 0 149 -32.5t134 -104.5z" />
    <glyph glyph-name="H" unicode="H" horiz-adv-x="623" 
d="M163 0h-97q3 80 3 123v473q0 8 -3 71h99q-4 -27 -4 -77v-198h303v192q-4 53 -4 62q0 12 1 21h96l-1 -37l-4 -73v-498q0 -10 4 -59h-94v32l2 75v196h-303v-219q0 -52 2 -84z" />
    <glyph glyph-name="I" unicode="I" horiz-adv-x="238" 
d="M168 0h-102q6 86 6 110v432q0 81 -4 125h104q-8 -71 -8 -115v-444q0 -47 4 -108z" />
    <glyph glyph-name="J" unicode="J" horiz-adv-x="235" 
d="M-93 -127l26 85q17 -5 31 -5q25 0 49.5 14t35.5 34q22 46 22 117v79v351l-1 84v35h96l-2 -50q0 -17 -0.5 -35.5t-1 -27.5t-0.5 -11v-341q0 -142 -16 -196q-26 -85 -104 -121q-43 -20 -87 -20q-19 0 -48 8z" />
    <glyph glyph-name="K" unicode="K" horiz-adv-x="565" 
d="M164 0h-97q1 28 1 80v502q0 54 -1 85h98l-1 -48q0 -15 -0.5 -32t-1 -25.5t-0.5 -10.5v-159l260 275h127l-325 -330l247 -228q30 -28 46 -42q20 -15 37 -31l-68 -69q-48 50 -98 96l-226 209v-194q0 -45 2 -78z" />
    <glyph glyph-name="L" unicode="L" 
d="M69 667h105q-9 -71 -9 -110v-472h168q61 0 151 6l-26 -91h-386v589q0 2 -2 50z" />
    <glyph glyph-name="M" unicode="M" horiz-adv-x="716" 
d="M135 0h-107q18 99 23 149l46 518h47l217 -363l208 363h48l50 -524q4 -45 21 -143h-102q-4 103 -7 130l-31 324l-190 -324l-193 327l-28 -378l-1 -42z" />
    <glyph glyph-name="N" unicode="N" horiz-adv-x="625" 
d="M66 0l4 57q3 34 3 50v560h56l334 -465v360q0 4 -2 52l-2 53h99q-6 -77 -6 -100v-567h-49l-342 471v-380q0 -46 8 -91h-103z" />
    <glyph glyph-name="O" unicode="O" horiz-adv-x="759" 
d="M380 679q149 0 247 -99t98 -249q0 -143 -100 -243.5t-242 -100.5q-150 0 -249 97t-99 245q0 147 98 248q99 102 247 102zM384 594q-109 0 -184.5 -76t-75.5 -186q0 -111 74.5 -186.5t183.5 -75.5q106 0 181.5 77t75.5 186t-74.5 185t-180.5 76z" />
    <glyph glyph-name="P" unicode="P" horiz-adv-x="528" 
d="M159 0h-99q4 63 4 91v571q86 17 145 17q120 0 194.5 -66.5t74.5 -173.5q0 -100 -69.5 -169t-169.5 -69q-21 0 -57 3l-26 1v-133q0 -18 3 -72zM156 591v-299q42 -7 65 -7q69 0 118 42.5t49 101.5q0 75 -49 120.5t-129 45.5q-21 0 -54 -4z" />
    <glyph glyph-name="Q" unicode="Q" horiz-adv-x="765" 
d="M596 60l62 -70l-74 -59l-65 85q-61 -31 -137 -31q-146 0 -246.5 99t-100.5 244q0 150 100 251.5t248 101.5t248 -100t100 -247q0 -117 -67 -207q-22 -30 -68 -67zM477 200l63 -76q53 43 74 84q29 56 29 122q0 112 -75 189.5t-182 77.5q-108 0 -186 -79t-78 -188
q0 -108 75.5 -184t184.5 -76q32 0 79 12l-56 62z" />
    <glyph glyph-name="R" unicode="R" horiz-adv-x="537" 
d="M64 0l2 50q2 58 2 60v490v64q63 16 135 16q111 0 180 -38q48 -28 76 -81t28 -117q0 -87 -49.5 -141.5t-138.5 -68.5l116 -110q39 -36 96 -84l-70 -68q-8 8 -22 24.5t-21 23.5l-56 66l-178 186l16 32q41 -4 63 -4q68 0 112.5 42.5t44.5 108.5t-51.5 107.5t-133.5 41.5
q-21 0 -56 -7v-514q0 -51 1 -79h-96z" />
    <glyph glyph-name="S" unicode="S" horiz-adv-x="513" 
d="M6 99l66 66q42 -52 82 -73.5t95 -21.5q60 0 97.5 30t37.5 77q0 42 -26 65q-20 17 -42.5 26t-135.5 44q-71 22 -109.5 67t-38.5 107q0 83 60 137t151 54q62 0 107.5 -22t93.5 -74l-54 -66q-42 44 -74.5 61.5t-71.5 17.5q-52 0 -88.5 -31t-36.5 -75q0 -37 31 -62
q17 -14 43 -24t87 -26q100 -28 147 -75t47 -119q0 -85 -63 -140.5t-158 -55.5q-131 0 -247 113z" />
    <glyph glyph-name="T" unicode="T" horiz-adv-x="504" 
d="M6 575l26 92h469l-36 -92q-95 5 -114 5h-56v-492q3 -59 3 -65q0 -13 -1 -23h-99l3 49q0 10 0.5 23t1 19.5t0.5 9.5v479h-89q-3 0 -10 -0.5t-20 -1t-23 -0.5z" />
    <glyph glyph-name="U" unicode="U" horiz-adv-x="683" 
d="M63 667h103q-6 -47 -6 -77v-300q0 -101 24 -142q23 -39 66.5 -61.5t96.5 -22.5t96.5 21.5t66.5 59.5q13 21 16 43t3 87v314l-2 43l-1 35h94q-2 -24 -2 -72v-318q0 -70 -6.5 -107t-25.5 -68q-33 -58 -95.5 -90t-141.5 -32t-143 32t-98 88q-42 70 -42 197v315q0 18 -3 55z
" />
    <glyph glyph-name="V" unicode="V" horiz-adv-x="582" 
d="M5 651l98 35q4 -22 12 -44q12 -34 18 -50l152 -434l166 441q8 21 19 68h106q-38 -83 -44 -98l-219 -569h-54l-214 557q-19 52 -40 94z" />
    <glyph glyph-name="W" unicode="W" horiz-adv-x="796" 
d="M2 651l95 33q30 -91 38 -113l149 -411l63 180l-124 311l94 33q10 -42 18 -63l60 -171l56 157l10 28q2 6 10 32h104q-15 -32 -35 -81l-98 -246l63 -180l155 426q12 31 27 81h106q-42 -89 -50 -111l-214 -556h-56l-81 230l-81 -230h-55l-203 525z" />
    <glyph glyph-name="X" unicode="X" horiz-adv-x="610" 
d="M126 0h-118l55 72q32 45 37 51l150 221l-150 200q-18 25 -37 46l-28 36l82 61q16 -27 39 -61l149 -205l129 197q14 22 26 49h126q-45 -54 -93 -123l-131 -195l176 -237q22 -30 62 -79l-80 -57l-24 36l-30 44l-160 217l-136 -205q-22 -33 -25 -37z" />
    <glyph glyph-name="Y" unicode="Y" horiz-adv-x="556" 
d="M4 631l89 54l21 -39q6 -14 17 -30l137 -220l129 207q25 42 37 64h116q-15 -21 -37 -50q-5 -9 -19 -27q-2 -3 -3.5 -4.5t-2 -2.5t-1 -1.5t-1 -2t-2.5 -3.5l-174 -271v-226q0 -23 3 -79h-99l2 32q2 60 2 61v217l-158 243q-21 32 -56 78z" />
    <glyph glyph-name="Z" unicode="Z" horiz-adv-x="561" 
d="M11 33l375 548h-248q-50 0 -85 -4v90h468l13 -30l-381 -553h216q99 0 155 6v-90h-502z" />
    <glyph glyph-name="bracketleft" unicode="[" horiz-adv-x="300" 
d="M87 -142v817h195v-89l-63 2l-41 2v-650q75 4 104 7v-93q-88 4 -188 4h-7z" />
    <glyph glyph-name="backslash" unicode="\" horiz-adv-x="317" 
d="M258 -32h-82l-117 698h83z" />
    <glyph glyph-name="bracketright" unicode="]" horiz-adv-x="297" 
d="M18 -139v89l103 -5l1 647l-103 -5l-1 88h192v-814h-192z" />
    <glyph glyph-name="asciicircum" unicode="^" 
d="M93 378h-73l192 289h76l193 -289h-74l-157 231z" />
    <glyph glyph-name="underscore" unicode="_" 
d="M500 -75v-76h-500v76h500z" />
    <glyph glyph-name="grave" unicode="`" horiz-adv-x="237" 
d="M33 623h91l79 -136h-90z" />
    <glyph glyph-name="a" unicode="a" horiz-adv-x="456" 
d="M334 -10l-19 54q-49 -50 -121 -50q-68 0 -114.5 45.5t-46.5 112.5q0 68 49 112t124 44q25 0 53.5 -10t39.5 -23q-2 51 -23.5 70.5t-76.5 19.5q-26 0 -44 -6.5t-66 -32.5l-32 77q78 41 148 41q61 0 106 -26q73 -42 73 -139v-99v-3q0 -49 5 -79t21 -79zM206 231
q-36 0 -62 -23.5t-26 -56.5q0 -34 26 -56.5t66 -22.5q41 0 69 23t28 57q0 35 -28 57t-73 22z" />
    <glyph glyph-name="b" unicode="b" horiz-adv-x="525" 
d="M59 667h100q-5 -68 -5 -85v-159q60 23 104 23q50 0 97.5 -21t79.5 -57q50 -58 50 -146q0 -99 -64 -165t-160 -66q-46 0 -88 12t-114 45q6 27 6 78v469q0 34 -6 72zM154 335v-232q57 -27 101 -27q60 0 102 42t42 102q0 61 -39 101t-98 40q-43 0 -108 -26z" />
    <glyph glyph-name="c" unicode="c" horiz-adv-x="477" 
d="M437 381l-53 -74q-50 51 -113 51q-61 0 -101 -41.5t-40 -104.5q0 -60 38.5 -101t95.5 -41q66 0 129 69l66 -65q-57 -50 -99.5 -69t-94.5 -19q-96 0 -160.5 64t-64.5 159q0 99 67 167t165 68q44 0 80 -13.5t85 -49.5z" />
    <glyph glyph-name="d" unicode="d" horiz-adv-x="511" 
d="M357 425v188q0 7 -2 54h97q-6 -58 -6 -91v-538q-54 -29 -91 -40t-81 -11q-102 0 -168 63.5t-66 161.5t66 163t166 65q39 0 85 -15zM357 90v252q-47 19 -81 19q-62 0 -106 -43.5t-44 -104.5q0 -62 42 -103t106 -41q37 0 83 21z" />
    <glyph glyph-name="e" unicode="e" horiz-adv-x="522" 
d="M481 194h-349q4 -43 25 -71q40 -50 108 -50q79 0 148 78l64 -55q-55 -59 -98 -81q-58 -29 -116 -29q-95 0 -159 65t-64 162q0 99 65.5 167t160.5 68q52 0 99 -24t75 -65q20 -30 29 -65.5t12 -99.5zM140 279h242q-13 38 -34 57q-35 30 -81 30q-80 0 -127 -87z" />
    <glyph glyph-name="f" unicode="f" horiz-adv-x="281" 
d="M14 347l1 87l56 -1q-2 42 -2 52q0 85 45 140.5t115 55.5q34 0 71 -24l-38 -70q-18 7 -29 7q-25 0 -42.5 -18.5t-24.5 -50.5q-5 -23 -5 -92h33q4 0 78 2v-88q-37 1 -77 1h-34v-253q0 -68 1 -95l-97 1l2 36q4 37 4 56v257z" />
    <glyph glyph-name="g" unicode="g" horiz-adv-x="549" 
d="M63 -88l71 55q26 -42 56 -59.5t74 -17.5q30 0 57.5 11t40.5 28q17 23 26 96q-53 -35 -120 -35q-98 0 -163 64t-65 161q0 98 66.5 165t163.5 67q52 0 98 -13.5t117 -50.5q-18 -78 -18 -119q0 -73 6 -212q1 -9 1 -27q0 -113 -63 -168q-52 -45 -149 -45q-61 0 -106 22.5
t-93 77.5zM382 107q-5 80 -5 109q0 42 6 122q-57 26 -104 26q-67 0 -110 -41.5t-43 -106.5q0 -62 40.5 -103.5t101.5 -41.5q64 0 114 36z" />
    <glyph glyph-name="h" unicode="h" 
d="M153 0h-94q2 61 2 79v486q0 33 -2 102h94l-1 -39q-3 -40 -3 -52v-162q56 26 104 26q50 0 92 -22t63 -60q18 -31 18 -108v-172v-5q1 -5 1.5 -14.5t0.5 -19.5l1 -39h-94q4 53 4 95v156q0 64 -27 85t-67 21q-52 0 -96 -37v-238q0 -51 4 -82z" />
    <glyph glyph-name="i" unicode="i" horiz-adv-x="240" 
d="M120 614q25 0 44.5 -18.5t19.5 -42.5q0 -27 -18 -45.5t-44 -18.5t-44.5 18.5t-18.5 44.5t17.5 44t43.5 18zM174 0h-102q7 77 7 107v227q0 21 -7 99h102q-6 -68 -6 -113v-213q0 -3 2 -49z" />
    <glyph glyph-name="j" unicode="j" horiz-adv-x="222" 
d="M-45 -175l28 83q20 -8 30 -8q48 0 48 76v341q0 17 -3 62l-2 54h104l-3 -32q-2 -20 -2 -23v-343q0 -110 -29 -164q-15 -28 -44 -44t-63 -16q-26 0 -64 14zM108 616q27 0 44.5 -17.5t17.5 -43.5t-17.5 -44.5t-42.5 -18.5q-27 0 -45.5 18.5t-18.5 44.5q0 25 18 43t44 18z
" />
    <glyph glyph-name="k" unicode="k" horiz-adv-x="460" 
d="M155 0h-96q4 23 4 53v546q0 29 -4 68h99l-5 -42q-4 -29 -4 -46v-312l182 166h133q-15 -13 -45 -37q-15 -12 -43 -36l-145 -130l130 -120q28 -27 87 -74l-71 -70q-48 54 -101 104l-127 120v-110q0 -40 6 -80z" />
    <glyph glyph-name="l" unicode="l" horiz-adv-x="223" 
d="M161 0h-101q9 99 9 130v413q0 27 -5 124h101q-8 -92 -8 -121v-424q0 -84 4 -122z" />
    <glyph glyph-name="m" unicode="m" horiz-adv-x="708" 
d="M40 425l81 28q13 -20 17 -46q39 39 105 39q68 0 119 -44q74 45 134 45q43 0 78 -18t53 -50q19 -33 19 -120v-155l3 -63l1 -41h-99l2 40l5 78v148q0 53 -15 73.5t-52 20.5q-52 0 -90 -37v-215q0 -50 6 -108h-99l3 46q3 44 3 61v164q0 48 -15.5 68.5t-52.5 20.5
q-40 0 -88 -34v-253q0 -37 6 -73h-100l1 28l2 37v244q0 55 -27 116z" />
    <glyph glyph-name="n" unicode="n" 
d="M40 423l81 28q9 -23 14 -44q61 41 122 41q50 0 92 -23t65 -63q22 -38 22 -111v-190q0 -37 2 -61h-98q9 66 9 117v156q0 44 -25 68t-72 24q-54 0 -100 -43v-240q0 -27 4 -82h-97q5 46 5 93v217q0 36 -3 51t-21 62z" />
    <glyph glyph-name="o" unicode="o" horiz-adv-x="539" 
d="M268 448q97 0 163.5 -64t66.5 -159q0 -100 -66.5 -169t-164.5 -69q-97 0 -162 66t-65 164q0 96 66.5 163.5t161.5 67.5zM267 364q-59 0 -99.5 -42t-40.5 -104q0 -61 41.5 -104.5t98.5 -43.5q60 0 101.5 44t41.5 107q0 61 -41 102t-102 41z" />
    <glyph glyph-name="p" unicode="p" horiz-adv-x="518" 
d="M155 -185h-96q6 91 6 123v403q0 16 -1 32l-1 28q111 42 181 42q52 0 101.5 -21.5t82.5 -59.5q50 -58 50 -147q0 -98 -62 -162.5t-157 -64.5q-57 0 -105 26v-147l-1 -29q0 -1 2 -23zM154 346v-240q54 -35 99 -35q60 0 98.5 39.5t38.5 101.5q0 67 -42.5 108t-111.5 41
q-33 0 -82 -15z" />
    <glyph glyph-name="q" unicode="q" horiz-adv-x="526" 
d="M371 -101v114q-57 -22 -100 -22q-100 0 -165 61.5t-65 156.5q0 105 63 169.5t165 64.5q52 0 93.5 -12.5t103.5 -47.5q-3 -88 -3 -119v-346q0 -55 3 -103h-100q5 49 5 84zM371 101v239q-61 23 -97 23q-62 0 -104 -42t-42 -105t40 -103.5t103 -40.5q41 0 100 29z" />
    <glyph glyph-name="r" unicode="r" horiz-adv-x="303" 
d="M40 421l80 27q14 -38 18 -68q21 33 42 46.5t52 13.5t70 -22l-27 -88q-36 18 -56 18q-69 0 -69 -117v-136q0 -23 8 -95h-100q4 33 4 102v191v6q1 5 1 16q0 53 -23 106z" />
    <glyph glyph-name="s" unicode="s" horiz-adv-x="393" 
d="M17 62l52 64q35 -32 60 -44t56 -12q36 0 60 18.5t24 45.5q0 19 -12.5 31.5t-41.5 20.5q-83 24 -102 32t-38 24q-33 26 -33 77q0 53 42.5 90.5t103.5 37.5q69 0 155 -66l-54 -61q-57 48 -99 48q-26 0 -43.5 -14t-17.5 -34q0 -28 59 -40q78 -17 114 -43q50 -37 50 -98
q0 -65 -47 -107t-119 -42q-46 0 -82.5 15.5t-86.5 56.5z" />
    <glyph glyph-name="t" unicode="t" horiz-adv-x="293" 
d="M8 347v85l55 -2q-1 93 -4 171h98q-7 -90 -7 -171l107 2v-85l-107 2v-164q0 -68 8 -89t33 -21q17 0 48 13l23 -78q-46 -18 -76 -18q-58 0 -90.5 41t-32.5 114v202z" />
    <glyph glyph-name="u" unicode="u" horiz-adv-x="493" 
d="M58 433h94q-6 -67 -6 -137v-130q0 -43 25.5 -68.5t68.5 -25.5q39 0 101 39v242q0 51 -3 80h96q-6 -60 -6 -108v-208q0 -34 25 -103l-78 -28l-16 45q-55 -41 -122 -41q-49 0 -91.5 23t-65.5 61q-22 38 -22 109v250z" />
    <glyph glyph-name="v" unicode="v" horiz-adv-x="479" 
d="M5 412l88 40l149 -315l135 296h100l-181 -358q-17 -35 -30 -75h-53q-14 44 -24 64z" />
    <glyph glyph-name="w" unicode="w" horiz-adv-x="733" 
d="M3 418l90 38l131 -304l119 281h43l121 -283l119 283h106l-181 -374l-14 -31l-12 -28h-46q-14 43 -25 69l-94 216l-90 -222q-4 -11 -14 -33q-3 -7 -10 -30h-46q-18 45 -40 90z" />
    <glyph glyph-name="x" unicode="x" horiz-adv-x="511" 
d="M10 0l195 226l-161 177l72 61l148 -176l114 145h126l-184 -209l173 -193l-75 -56l-158 188l-129 -163h-121z" />
    <glyph glyph-name="y" unicode="y" horiz-adv-x="481" 
d="M4 416l90 45l154 -336l119 310h109l-182 -397q-39 -89 -54 -116.5t-45 -57.5q-33 -35 -81 -35q-36 0 -102 25l30 80q38 -23 64 -23t44.5 23t52.5 100z" />
    <glyph glyph-name="z" unicode="z" horiz-adv-x="427" 
d="M33 0l-8 32l231 322h-116q-4 0 -46 -2l-50 -4v85h347l11 -28l-237 -325h123q21 0 111 9v-89h-366z" />
    <glyph glyph-name="braceleft" unicode="{" horiz-adv-x="291" 
d="M172 527v-160q0 -49 -13 -73.5t-48 -44.5q34 -19 47.5 -45.5t13.5 -74.5v-155q0 -45 5 -63t21 -26q21 -11 70 -11v-58h-26q-77 0 -110 34t-33 113v163q0 44 -12.5 65t-44.5 29v58q32 8 44.5 28.5t12.5 65.5v173q0 73 34.5 105.5t110.5 32.5q11 0 24 -1v-58q-51 0 -71 -12
q-15 -8 -20 -25t-5 -60z" />
    <glyph glyph-name="bar" unicode="|" 
d="M200 667h100v-834h-100v834z" />
    <glyph glyph-name="braceright" unicode="}" horiz-adv-x="291" 
d="M120 -28v160q0 49 13 73.5t48 44.5q-34 19 -47.5 45t-13.5 74v155q0 44 -5.5 62.5t-20.5 26.5q-21 11 -71 11v58q13 1 27 1q77 0 110 -34t33 -113v-163q0 -44 12.5 -65t43.5 -29v-58q-31 -8 -43.5 -29t-12.5 -65v-173q0 -73 -34.5 -105.5t-110.5 -32.5h-25v58q51 1 71 12
q16 8 21 25t5 61z" />
    <glyph glyph-name="asciitilde" unicode="~" 
d="M457 696l39 -38q-35 -62 -66.5 -89t-68.5 -27q-29 0 -114 38q-58 26 -74.5 31.5t-32.5 5.5q-25 0 -47 -19.5t-51 -69.5l-38 38q38 63 68 89t67 26q34 0 126 -41q77 -34 94 -34q26 0 49 21t49 69z" />
    <glyph glyph-name="exclamdown" unicode="&#xa1;" horiz-adv-x="232" 
d="M96 465q28 0 45.5 -17.5t17.5 -45.5q0 -26 -17.5 -43t-42.5 -17q-26 0 -44.5 19t-18.5 47q0 24 17.5 40.5t42.5 16.5zM49 -213l7 507h86l8 -507h-101z" />
    <glyph glyph-name="cent" unicode="&#xa2;" horiz-adv-x="540" 
d="M323 638v-84q57 -7 99 -28v-130q-35 38 -61.5 53t-61.5 15q-55 0 -89.5 -37t-34.5 -96q0 -58 34.5 -93t90.5 -35q53 0 91 36q5 4 31 35v-134q-53 -22 -99 -28v-86h-74v90q-44 14 -67.5 27t-45.5 38q-58 64 -58 152q0 167 171 220v85h74z" />
    <glyph glyph-name="sterling" unicode="&#xa3;" horiz-adv-x="540" 
d="M32 0v65q55 28 78 63q20 31 20 84v7h-95v63h75q-36 85 -48 122t-12 67q0 74 62 129t145 55q94 0 154 -68q24 -28 36 -60.5t21 -92.5l-91 -23q0 57 -11 85q-30 76 -110 76q-50 0 -84.5 -32t-34.5 -78q0 -25 9 -51.5t53 -128.5h140v-63h-125q-1 -58 -13 -87t-50 -64l53 21
h182q23 0 71 6v-95h-425z" />
    <glyph glyph-name="currency" unicode="&#xa4;" horiz-adv-x="667" 
d="M48 126l95 95q-48 67 -48 141t50 141l-98 97l46 47l98 -98q69 50 142 50q74 0 142 -48l95 95l46 -46l-95 -95q51 -67 51 -144q0 -74 -48 -139l96 -96l-46 -47l-96 96q-68 -51 -144 -51q-73 0 -144 51l-96 -95zM336 525q-69 0 -117 -47.5t-48 -115.5t48 -116t115 -48
q66 0 113.5 48t47.5 115t-47 115.5t-112 48.5z" />
    <glyph glyph-name="yen" unicode="&#xa5;" horiz-adv-x="556" 
d="M266 392l133 211q27 47 36 64h117q-3 -3 -16.5 -22t-21.5 -28q-9 -14 -29 -41l-75 -119h91v-63h-132l-42 -66h174v-63h-189v-186q0 -23 3 -79h-99l2 32q2 60 2 61v172h-182v63h170l-43 66h-127v63h85l-62 96q-22 34 -55 77l89 55l21 -39q2 -4 17 -30z" />
    <glyph glyph-name="brokenbar" unicode="&#xa6;" 
d="M300 333h-100v333h100v-333zM200 152h100v-319h-100v319z" />
    <glyph glyph-name="section" unicode="&#xa7;" horiz-adv-x="512" 
d="M436 512h-76q-6 107 -107 107q-41 0 -67 -21.5t-26 -55.5q0 -30 18.5 -48.5t78.5 -50.5q142 -74 186 -114t44 -97q0 -45 -27.5 -81t-74.5 -52q54 -48 54 -106q0 -66 -50.5 -107.5t-131.5 -41.5q-89 0 -139.5 48t-49.5 133h76q7 -115 113 -115q45 0 72.5 22.5t27.5 59.5
q0 25 -13 43t-46 40q-32 21 -126 71q-85 45 -116 80t-31 87q0 97 100 133q-46 43 -46 96q0 62 49 101.5t126 39.5q83 0 131.5 -45.5t50.5 -125.5zM170 407q-71 -26 -71 -86q0 -31 30 -58t123 -78q26 -12 48 -27q29 -18 38 -21q34 10 54 32.5t20 50.5q0 29 -19 50t-78 57
q-62 39 -145 80z" />
    <glyph glyph-name="dieresis" unicode="&#xa8;" horiz-adv-x="344" 
d="M91 610q28 0 47 -18t19 -44t-18.5 -44t-45.5 -18q-26 0 -43 18t-17 45q0 25 17 43t41 18zM248 611q26 0 43.5 -17.5t17.5 -43.5q0 -27 -17.5 -44.5t-43.5 -17.5t-44 18t-18 45q0 25 18 42.5t44 17.5z" />
    <glyph glyph-name="copyright" unicode="&#xa9;" horiz-adv-x="778" 
d="M518 297h61q-5 -76 -55.5 -122t-128.5 -46q-87 0 -141.5 57.5t-54.5 150.5q0 92 55.5 150t143.5 58q71 0 121.5 -40t54.5 -101h-61q-8 42 -39 65.5t-78 23.5q-60 0 -97 -43.5t-37 -113.5t36.5 -112.5t97.5 -42.5q51 0 83 30.5t39 85.5zM393 681q140 0 241.5 -102.5
t101.5 -244.5q0 -143 -102 -245t-245 -102t-245 101.5t-102 244.5q0 146 102 247t249 101zM392 633q-126 0 -213 -87t-87 -213q0 -124 87 -211.5t209 -87.5q123 0 209.5 87.5t86.5 211.5q0 123 -86.5 211.5t-205.5 88.5z" />
    <glyph glyph-name="ordfeminine" unicode="&#xaa;" horiz-adv-x="398" 
d="M332 380h-60q-4 11 -5 28l-2 10q-29 -28 -48.5 -37t-52.5 -9q-50 0 -78 23t-28 64q0 53 51 75q23 9 40 12.5t76 8.5q25 2 33 8.5t8 23.5q0 53 -67 53q-34 0 -50.5 -14.5t-20.5 -47.5h-55q8 103 129 103q65 0 98 -30q22 -21 22 -67q0 -7 -1 -45v-36q0 -71 1.5 -88t9.5 -35
zM265 509v19q-14 -9 -74 -14q-74 -7 -74 -53q0 -23 15.5 -36t43.5 -13q89 0 89 97zM353 320v-40h-295v40h295z" />
    <glyph glyph-name="guillemotleft" unicode="&#xab;" horiz-adv-x="509" 
d="M326 214l130 -166l-65 -47l-166 212l166 221l65 -48zM141 214l130 -166l-65 -47l-166 212l166 221l65 -48z" />
    <glyph glyph-name="logicalnot" unicode="&#xac;" 
d="M430 0v209h-421v59h481v-268h-60z" />
    <glyph glyph-name="registered" unicode="&#xae;" horiz-adv-x="778" 
d="M374 119h-69q3 69 3 71v336q42 10 86 10q69 0 111 -24q30 -17 47.5 -49.5t17.5 -72.5q0 -51 -28.5 -85.5t-78.5 -43.5l62 -59q26 -24 39 -35q9 -7 23 -19l-50 -48q-16 16 -24 26q-5 4 -17 20l-22 26l-101 106v-91q0 -47 1 -68zM373 475v-159q21 -7 46 -7q39 0 64 24
t25 61q0 38 -29.5 61t-78.5 23q-9 0 -27 -3zM393 684q141 0 242 -102t101 -245t-102 -245t-245 -102t-245 101.5t-102 244.5q0 146 102 247t249 101zM385 636q-120 0 -206.5 -88.5t-86.5 -210.5q0 -124 87 -212t209 -88t209 87.5t87 211.5q0 125 -87 212.5t-212 87.5z" />
    <glyph glyph-name="macron" unicode="&#xaf;" 
d="M85 586h330v-78h-330v78z" />
    <glyph glyph-name="degree" unicode="&#xb0;" 
d="M252 681q61 0 104.5 -43.5t43.5 -102.5q0 -61 -44 -104t-106 -43t-106 43t-44 103q0 62 44 104.5t108 42.5zM251 632q-41 0 -69.5 -28.5t-28.5 -69.5q0 -40 28.5 -68.5t68.5 -28.5t68 28.5t28 68.5t-28 69t-67 29z" />
    <glyph glyph-name="plusminus" unicode="&#xb1;" 
d="M10 417h208v195h65v-195h208v-65h-208v-183h-65v183h-208v65zM10 128h481v-65h-481v65z" />
    <glyph glyph-name="twosuperior" unicode="&#xb2;" horiz-adv-x="322" 
d="M76 550l-50 15q13 47 49.5 73.5t88.5 26.5q50 0 84 -27.5t34 -68.5q0 -59 -83 -132q-38 -34 -77 -58h103l32 2l35 1v-42h-257l-7 20q108 81 137 107q64 60 64 101q0 24 -18.5 39.5t-47.5 15.5q-68 0 -87 -73z" />
    <glyph glyph-name="threesuperior" unicode="&#xb3;" horiz-adv-x="322" 
d="M18 430l52 14q9 -67 86 -67q35 0 59.5 18t24.5 44q0 53 -109 54l-5 22q89 23 89 66q0 20 -15.5 32.5t-39.5 12.5q-26 0 -41.5 -12.5t-29.5 -45.5l-48 14q19 42 39 59q34 26 81 26q46 0 76 -24.5t30 -61.5q0 -23 -12 -37t-43 -28q36 -5 53 -18q27 -19 27 -59
q0 -45 -38.5 -73.5t-98.5 -28.5q-111 0 -137 93z" />
    <glyph glyph-name="acute" unicode="&#xb4;" horiz-adv-x="227" 
d="M33 485l76 136h84l-72 -136h-88z" />
    <glyph glyph-name="mu" unicode="&#xb5;" 
d="M45 -168v651h78v-271q0 -44 6 -67t22 -44q37 -49 95 -49q57 0 93 47t36 121v263h78v-483h-78v80q-24 -50 -54 -72t-75 -22q-42 0 -70.5 17t-52.5 57v-228h-78z" />
    <glyph glyph-name="paragraph" unicode="&#xb6;" horiz-adv-x="565" 
d="M241 -96v413h-14q-81 0 -132 48t-51 125q0 51 23.5 92t64.5 61q47 25 135 25h231v-41h-48v-723h-53v723h-102v-723h-54z" />
    <glyph glyph-name="periodcentered" unicode="&#xb7;" horiz-adv-x="200" 
d="M151 323v-100h-103v100h103z" />
    <glyph glyph-name="cedilla" unicode="&#xb8;" horiz-adv-x="200" 
d="M33 -153l21 28q22 -17 37 -17t25.5 9.5t10.5 22.5q0 29 -56 36v128h36v-99q32 -8 45.5 -22.5t13.5 -40.5q0 -30 -20 -50.5t-50 -20.5t-63 26z" />
    <glyph glyph-name="onesuperior" unicode="&#xb9;" horiz-adv-x="322" 
d="M78 585l-22 38q42 15 75 29q28 9 52 22l16 -9v-287q0 -9 1 -18l1 -20h-57q2 32 2 40v232z" />
    <glyph glyph-name="ordmasculine" unicode="&#xba;" horiz-adv-x="410" 
d="M209 681q64 0 104 -43t40 -112q0 -70 -40.5 -112t-106.5 -42q-67 0 -107.5 42.5t-40.5 111.5q0 70 41.5 112.5t109.5 42.5zM207 637q-42 0 -66.5 -29.5t-24.5 -81.5q0 -51 24 -80.5t66 -29.5q41 0 65 29.5t24 80.5q0 50 -24 80.5t-64 30.5zM356 320v-40h-295v40h295z" />
    <glyph glyph-name="guillemotright" unicode="&#xbb;" horiz-adv-x="509" 
d="M182 214l-129 172l65 48l166 -221l-166 -212l-65 47zM367 214l-129 172l65 48l166 -221l-167 -212l-64 47z" />
    <glyph glyph-name="onequarter" unicode="&#xbc;" horiz-adv-x="789" 
d="M78 584l-22 38q40 14 75 28q32 13 52 23l16 -10v-286q0 -9 1 -18l1 -20h-57q2 32 2 40v232zM605 658l-391 -658h-54l392 658h53zM493 81l-10 15q43 53 68 105t51 144l48 -15q-7 -46 -37 -113t-56 -95h103v143h48v-143h60v-41h-60v-81h-48v81h-167z" />
    <glyph glyph-name="onehalf" unicode="&#xbd;" horiz-adv-x="781" 
d="M78 584l-22 38q40 14 75 28q32 13 52 23l16 -10v-286q0 -9 1 -18l1 -20h-57q2 32 2 40v232zM605 658l-391 -658h-54l392 658h53zM534 210l-50 15q13 47 49.5 73.5t88.5 26.5q50 0 84 -27.5t34 -69.5q0 -58 -83 -131q-41 -36 -77 -58h103q8 0 16.5 0.5t23 1t27.5 0.5v-41
h-257l-7 20q110 82 137 107q64 60 64 101q0 24 -18.5 39.5t-47.5 15.5q-68 0 -87 -73z" />
    <glyph glyph-name="threequarters" unicode="&#xbe;" horiz-adv-x="804" 
d="M620 658l-391 -658h-53l392 658h52zM18 435l51 14q11 -68 87 -68q35 0 59.5 18t24.5 44q0 54 -109 54l-5 23q89 22 89 66q0 20 -15.5 32.5t-39.5 12.5q-26 0 -41.5 -12.5t-29.5 -46.5l-48 14q18 43 39 60q34 26 81 26q46 0 76 -24.5t30 -62.5q0 -22 -12 -36t-43 -28
q38 -6 53 -18q27 -21 27 -59q0 -46 -38.5 -74.5t-98.5 -28.5q-111 0 -137 94zM509 81l-10 15q43 53 68 105t51 144l48 -15q-7 -46 -37 -113t-56 -95h103v143h48v-143h60v-41h-60v-81h-48v81h-167z" />
    <glyph glyph-name="questiondown" unicode="&#xbf;" horiz-adv-x="441" 
d="M338 -44l68 -45q-30 -64 -80.5 -99.5t-110.5 -35.5q-85 0 -140 60q-38 40 -38 118q0 55 21 98.5t71 89.5q26 25 31.5 36.5t5.5 39.5v77h86v-86q0 -30 -4 -41q-10 -31 -43 -64q-42 -43 -50 -52.5t-15 -23.5q-20 -36 -20 -74q0 -43 24.5 -68.5t65.5 -25.5t61 15t67 81z
M203 468q26 0 46.5 -18t20.5 -41q0 -27 -19 -47t-45 -20q-25 0 -43.5 19.5t-18.5 46.5q0 25 17 42.5t42 17.5z" />
    <glyph glyph-name="Agrave" unicode="&#xc0;" horiz-adv-x="565" 
d="M0 0l251 667h67l247 -667h-97l-86 233h-199l-82 -233h-101zM214 321h136l-69 187zM197 870h92l79 -136h-91z" />
    <glyph glyph-name="Aacute" unicode="&#xc1;" horiz-adv-x="565" 
d="M0 0l251 667h67l247 -667h-97l-86 233h-199l-82 -233h-101zM214 321h136l-69 187zM203 734l76 135h83l-71 -135h-88z" />
    <glyph glyph-name="Acircumflex" unicode="&#xc2;" horiz-adv-x="565" 
d="M0 0l251 667h67l247 -667h-97l-86 233h-199l-82 -233h-101zM214 321h136l-69 187zM249 734h-81q38 83 60 152h115q20 -72 54 -152h-76l-40 70z" />
    <glyph glyph-name="Atilde" unicode="&#xc3;" horiz-adv-x="565" 
d="M0 0l251 667h67l247 -667h-97l-86 233h-199l-82 -233h-101zM214 321h136l-69 187zM202 735l-81 5q11 103 91 103q22 0 96 -23q9 -4 21 -4q22 0 26 28l89 -5q-6 -55 -28 -80t-65 -25q-18 0 -30 3t-67 23q-16 4 -24 4q-20 0 -28 -29z" />
    <glyph glyph-name="Adieresis" unicode="&#xc4;" horiz-adv-x="565" 
d="M0 0l251 667h67l247 -667h-97l-86 233h-199l-82 -233h-101zM214 321h136l-69 187zM204 858q26 0 45 -18.5t19 -43.5q0 -26 -18.5 -44t-45.5 -18q-25 0 -42.5 18t-17.5 44t17.5 44t42.5 18zM359 859q25 0 43 -17.5t18 -43.5q0 -27 -17.5 -44.5t-44.5 -17.5q-26 0 -43.5 18
t-17.5 46q0 24 18.5 41.5t43.5 17.5z" />
    <glyph glyph-name="Aring" unicode="&#xc5;" horiz-adv-x="565" 
d="M0 0l251 667h67l247 -667h-97l-86 233h-199l-82 -233h-101zM214 321h136l-69 187zM282 922q40 0 67.5 -27.5t27.5 -66.5t-28 -66.5t-66 -27.5q-40 0 -67.5 28t-27.5 67q0 38 28 65.5t66 27.5zM283 870q-17 0 -30 -12.5t-13 -28.5q0 -18 12.5 -30.5t30.5 -12.5
q17 0 29.5 12.5t12.5 29.5t-12.5 29.5t-29.5 12.5z" />
    <glyph glyph-name="AE" unicode="&#xc6;" horiz-adv-x="906" 
d="M866 667l-28 -88h-304v-189h147q78 0 134 2l-26 -88h-255v-220h196q38 0 150 7l-23 -91h-417v235h-201l-82 -148q-2 -3 -29 -52l-18 -35h-104q13 17 28 42q9 12 25 38l339 587h468zM440 590l-151 -268h151v268z" />
    <glyph glyph-name="Ccedilla" unicode="&#xc7;" horiz-adv-x="664" 
d="M386 -14v-60q31 -7 45 -22t14 -41q0 -30 -20.5 -50.5t-49.5 -20.5q-31 0 -63 26l21 28q22 -17 37 -17t25.5 9.5t10.5 22.5q0 29 -56 36v90q-139 11 -228 107t-89 234q0 151 100.5 253.5t248.5 102.5q92 0 166 -41q26 -16 64 -51l-54 -71q-47 42 -87 59t-91 17
q-107 0 -182.5 -79.5t-75.5 -192.5q0 -108 72 -180.5t181 -72.5q58 0 102.5 19.5t91.5 66.5l54 -75q-62 -51 -115 -72.5t-122 -24.5z" />
    <glyph glyph-name="Egrave" unicode="&#xc8;" horiz-adv-x="537" 
d="M70 0v667h427l-28 -88h-304v-189h147q78 0 134 2l-26 -88h-256v-220h197q38 0 150 7l-23 -91h-418zM205 869h91l79 -136h-90z" />
    <glyph glyph-name="Eacute" unicode="&#xc9;" horiz-adv-x="537" 
d="M70 0v667h427l-28 -88h-304v-189h147q78 0 134 2l-26 -88h-256v-220h197q38 0 150 7l-23 -91h-418zM210 733l76 135h84l-72 -135h-88z" />
    <glyph glyph-name="Ecircumflex" unicode="&#xca;" horiz-adv-x="537" 
d="M70 0v667h427l-28 -88h-304v-189h147q78 0 134 2l-26 -88h-256v-220h197q38 0 150 7l-23 -91h-418zM257 733h-81q37 83 60 152h115q17 -65 53 -152h-76l-40 70z" />
    <glyph glyph-name="Edieresis" unicode="&#xcb;" horiz-adv-x="537" 
d="M70 0v667h427l-28 -88h-304v-189h147q78 0 134 2l-26 -88h-256v-220h197q38 0 150 7l-23 -91h-418zM210 856q28 0 47 -18t19 -44t-18.5 -44t-45.5 -18q-26 0 -43 18t-17 45q0 25 17 43t41 18zM366 857q26 0 43.5 -17.5t17.5 -43.5q0 -27 -17.5 -44.5t-43.5 -17.5t-44 18
t-18 45q0 25 18 42.5t44 17.5z" />
    <glyph glyph-name="Igrave" unicode="&#xcc;" horiz-adv-x="238" 
d="M168 0h-102q6 85 6 110v432q0 81 -4 125h104q-8 -71 -8 -115v-444q0 -47 4 -108zM34 868h91l79 -137h-90z" />
    <glyph glyph-name="Iacute" unicode="&#xcd;" horiz-adv-x="238" 
d="M168 0h-102q6 85 6 110v432q0 81 -4 125h104q-8 -71 -8 -115v-444q0 -47 4 -108zM39 731l76 136h84l-72 -136h-88z" />
    <glyph glyph-name="Icircumflex" unicode="&#xce;" horiz-adv-x="238" 
d="M168 0h-102q6 85 6 110v432q0 81 -4 125h104q-8 -71 -8 -115v-444q0 -47 4 -108zM86 731h-81q37 83 60 152h115q17 -65 53 -152h-76l-40 70z" />
    <glyph glyph-name="Idieresis" unicode="&#xcf;" horiz-adv-x="238" 
d="M169 0h-102q6 85 6 110v432q0 81 -4 125h104q-8 -71 -8 -115v-444q0 -47 4 -108zM39 855q28 0 47 -18t19 -44t-18.5 -44t-45.5 -18q-26 0 -43 18t-17 45q0 25 17 43t41 18zM196 856q26 0 43.5 -18t17.5 -43q0 -27 -17.5 -44.5t-43.5 -17.5t-44 18t-18 45q0 25 18 42.5
t44 17.5z" />
    <glyph glyph-name="Eth" unicode="&#xd0;" horiz-adv-x="625" 
d="M72 306h-57v85h57v200q0 21 -3 77q93 14 136 14q106 0 181 -35q89 -43 142 -129.5t53 -188.5q0 -148 -99 -245.5t-249 -97.5q-91 0 -164 20q3 38 3 99v201zM165 306v-234q39 -3 54 -3q141 0 215 92q58 72 58 163q0 60 -22.5 113.5t-63.5 89.5q-78 69 -199 69h-42v-205
h131v-85h-131z" />
    <glyph glyph-name="Ntilde" unicode="&#xd1;" horiz-adv-x="625" 
d="M66 0l4 57q3 34 3 50v560h56l334 -465v360q0 4 -2 52l-2 53h99q-6 -77 -6 -100v-567h-49l-342 471v-380q0 -46 8 -91h-103zM231 732l-80 5q9 103 91 103q21 0 95 -23q9 -4 21 -4q21 0 27 28l88 -5q-5 -55 -27.5 -80t-65.5 -25q-17 0 -29 3t-67 23q-16 4 -24 4
q-11 0 -17.5 -6.5t-11.5 -22.5z" />
    <glyph glyph-name="Ograve" unicode="&#xd2;" horiz-adv-x="759" 
d="M380 679q149 0 247 -99t98 -249q0 -143 -100 -243.5t-242 -100.5q-150 0 -249 97t-99 245q0 147 98 248q99 102 247 102zM384 594q-109 0 -184.5 -76t-75.5 -186q0 -111 74.5 -186.5t183.5 -75.5q106 0 181.5 77t75.5 186t-74.5 185t-180.5 76zM295 882h91l79 -136h-90z
" />
    <glyph glyph-name="Oacute" unicode="&#xd3;" horiz-adv-x="759" 
d="M380 679q149 0 247 -99t98 -249q0 -143 -100 -243.5t-242 -100.5q-150 0 -249 97t-99 245q0 147 98 248q99 102 247 102zM384 594q-109 0 -184.5 -76t-75.5 -186q0 -111 74.5 -186.5t183.5 -75.5q106 0 181.5 77t75.5 186t-74.5 185t-180.5 76zM300 746l76 135h84
l-72 -135h-88z" />
    <glyph glyph-name="Ocircumflex" unicode="&#xd4;" horiz-adv-x="759" 
d="M380 679q149 0 247 -99t98 -249q0 -143 -100 -243.5t-242 -100.5q-150 0 -249 97t-99 245q0 147 98 248q99 102 247 102zM384 594q-109 0 -184.5 -76t-75.5 -186q0 -111 74.5 -186.5t183.5 -75.5q106 0 181.5 77t75.5 186t-74.5 185t-180.5 76zM347 746h-81q37 83 60 152
h115q19 -72 53 -152h-76l-40 70z" />
    <glyph glyph-name="Otilde" unicode="&#xd5;" horiz-adv-x="759" 
d="M380 679q149 0 247 -99t98 -249q0 -143 -100 -243.5t-242 -100.5q-150 0 -249 97t-99 245q0 147 98 248q99 102 247 102zM384 594q-109 0 -184.5 -76t-75.5 -186q0 -111 74.5 -186.5t183.5 -75.5q106 0 181.5 77t75.5 186t-74.5 185t-180.5 76zM299 747l-80 5
q9 103 91 103q21 0 95 -23q9 -4 21 -4q21 0 27 28l88 -5q-5 -55 -27.5 -80t-65.5 -25q-17 0 -29 3.5t-67 22.5q-16 4 -24 4q-11 0 -17.5 -6t-11.5 -23z" />
    <glyph glyph-name="Odieresis" unicode="&#xd6;" horiz-adv-x="759" 
d="M380 679q149 0 247 -99t98 -249q0 -143 -100 -243.5t-242 -100.5q-150 0 -249 97t-99 245q0 147 98 248q99 102 247 102zM384 594q-109 0 -184.5 -76t-75.5 -186q0 -111 74.5 -186.5t183.5 -75.5q106 0 181.5 77t75.5 186t-74.5 185t-180.5 76zM299 870q28 0 47 -18
t19 -44t-18.5 -44t-45.5 -18q-26 0 -43 18t-17 45q0 25 17 43t41 18zM456 871q26 0 43.5 -17.5t17.5 -43.5q0 -27 -17.5 -44.5t-43.5 -17.5t-44 18t-18 45q0 25 18 42.5t44 17.5z" />
    <glyph glyph-name="multiply" unicode="&#xd7;" 
d="M94 537l155 -155l156 156l37 -36l-157 -157l157 -155l-36 -36l-156 156l-156 -157l-37 37l157 156l-156 156z" />
    <glyph glyph-name="Oslash" unicode="&#xd8;" horiz-adv-x="759" 
d="M142 -37l44 79q-73 49 -112 123t-39 163q0 148 98 249q98 102 250 102q86 0 152 -33l47 82l27 -16l-32 -55v-1l-14 -25q76 -47 119 -126t43 -172q0 -146 -100.5 -246t-246.5 -100q-87 0 -164 40l-46 -79zM230 119l261 451q-48 24 -108 24q-109 0 -184.5 -76.5
t-75.5 -187.5q0 -64 28.5 -120t78.5 -91zM518 555l-261 -453q61 -32 124 -32q107 0 182.5 77t75.5 186q0 140 -121 222z" />
    <glyph glyph-name="Ugrave" unicode="&#xd9;" horiz-adv-x="683" 
d="M66 667h101q-6 -47 -6 -77v-300q0 -101 24 -142q22 -39 65.5 -61.5t96.5 -22.5t97 22t66 59q12 21 16 47t4 83v314l-4 43l-1 35h95q-2 -24 -2 -72v-318q0 -70 -6.5 -107t-25.5 -68q-33 -58 -95.5 -90t-141.5 -32q-78 0 -143.5 32.5t-96.5 87.5q-40 69 -40 197v315
q0 16 -3 55zM256 870h92l79 -137h-91z" />
    <glyph glyph-name="Uacute" unicode="&#xda;" horiz-adv-x="683" 
d="M66 667h101q-6 -47 -6 -77v-300q0 -101 24 -142q23 -39 66.5 -61.5t96.5 -22.5t97 22t66 59q12 21 16 47t4 83v314l-4 43l-1 35h95q-2 -24 -2 -72v-318q0 -70 -6.5 -107t-25.5 -68q-33 -58 -95.5 -90t-141.5 -32q-78 0 -143 32.5t-98 87.5q-40 68 -40 197v315q0 13 -3 55
zM262 733l76 136h84l-72 -136h-88z" />
    <glyph glyph-name="Ucircumflex" unicode="&#xdb;" horiz-adv-x="683" 
d="M65 667h102q-6 -47 -6 -77v-300q0 -101 24 -142q22 -39 65.5 -61.5t96.5 -22.5t97 22t66 59q12 21 16 47t4 83v314l-4 43l-1 35h95q-2 -24 -2 -72v-318q0 -70 -6.5 -107t-25.5 -68q-33 -58 -95.5 -90t-141.5 -32q-78 0 -143.5 32.5t-96.5 87.5q-40 69 -40 197v315
q0 1 -2 27zM308 733h-81q38 83 60 152h115q20 -72 54 -152h-76l-40 70z" />
    <glyph glyph-name="Udieresis" unicode="&#xdc;" horiz-adv-x="683" 
d="M65 667h102q-6 -47 -6 -77v-300q0 -101 24 -142q22 -39 65.5 -61.5t96.5 -22.5t97 22t66 59q12 21 16 47t4 83v314l-4 43l-1 35h95q-2 -24 -2 -72v-318q0 -70 -6.5 -107t-25.5 -68q-33 -58 -95.5 -90t-141.5 -32q-78 0 -141.5 32t-98.5 88q-25 39 -32.5 77.5t-7.5 119.5
v315q0 3 -2 27zM261 857q28 0 47 -18t19 -44t-18.5 -44t-45.5 -18q-26 0 -43 18t-17 45q0 25 17 43t41 18zM418 858q26 0 43.5 -18t17.5 -43q0 -27 -17.5 -44.5t-43.5 -17.5t-44 18t-18 45q0 25 18 42.5t44 17.5z" />
    <glyph glyph-name="Yacute" unicode="&#xdd;" horiz-adv-x="556" 
d="M6 636l87 49l174 -282l167 264h116l-240 -362v-226q0 -23 3 -79h-99l2 32q2 60 2 61v217zM197 752l76 135h84l-72 -135h-88z" />
    <glyph glyph-name="Thorn" unicode="&#xde;" horiz-adv-x="528" 
d="M60 667h104q-6 -37 -8 -60q38 2 43 2q124 0 202 -67.5t78 -175.5q0 -100 -69 -169t-169 -69q-21 0 -85 4v-24q0 -47 4 -108h-102q6 86 6 110v432q0 91 -4 125zM156 523v-303q38 -8 64 -8q72 0 120.5 42.5t48.5 104.5q0 74 -51.5 120t-135.5 46q-12 0 -46 -2z" />
    <glyph glyph-name="germandbls" unicode="&#xdf;" horiz-adv-x="529" 
d="M13 347v91q21 -3 32 -3q14 0 25 1q0 63 2 84t10 48q16 55 63 87t109 32q72 0 118 -45.5t46 -116.5q0 -55 -23.5 -87t-84.5 -59q85 -13 120 -46q58 -52 58 -138q0 -92 -59.5 -150.5t-152.5 -58.5q-42 0 -96 15v93q42 -26 82 -26q59 0 98.5 35t39.5 88q0 39 -22 69.5
t-61 44.5q-40 14 -135 15v61q85 39 111 62q39 33 39 77q0 36 -22 59.5t-56 23.5q-43 0 -68.5 -33t-25.5 -88v-426l-1 -37q0 -5 3 -19h-98q6 31 6 55v295z" />
    <glyph glyph-name="agrave" unicode="&#xe0;" horiz-adv-x="456" 
d="M334 -10l-19 54q-49 -50 -121 -50q-68 0 -114.5 45.5t-46.5 112.5q0 68 49 112t124 44q25 0 53.5 -10t39.5 -23q-2 51 -23.5 70.5t-76.5 19.5q-26 0 -44 -6.5t-66 -32.5l-32 77q78 41 148 41q61 0 106 -26q73 -42 73 -139v-99v-3q0 -49 5 -79t21 -79zM206 231
q-36 0 -62 -23.5t-26 -56.5q0 -34 26 -56.5t66 -22.5q41 0 69 23t28 57q0 35 -28 57t-73 22zM136 647h92l79 -136h-91z" />
    <glyph glyph-name="aacute" unicode="&#xe1;" horiz-adv-x="456" 
d="M334 -10l-19 54q-49 -50 -121 -50q-68 0 -114.5 45.5t-46.5 112.5q0 68 49 112t124 44q25 0 53.5 -10t39.5 -23q-2 51 -23.5 70.5t-76.5 19.5q-26 0 -44 -6.5t-66 -32.5l-32 77q78 41 148 41q61 0 106 -26q73 -42 73 -139v-99v-3q0 -49 5 -79t21 -79zM206 231
q-36 0 -62 -23.5t-26 -56.5q0 -34 26 -56.5t66 -22.5q41 0 69 23t28 57q0 35 -28 57t-73 22zM141 511l77 135h83l-72 -135h-88z" />
    <glyph glyph-name="acircumflex" unicode="&#xe2;" horiz-adv-x="456" 
d="M334 -10l-19 54q-49 -50 -121 -50q-68 0 -114.5 45.5t-46.5 112.5q0 68 49 112t124 44q25 0 53.5 -10t39.5 -23q-2 51 -23.5 70.5t-76.5 19.5q-26 0 -44 -6.5t-66 -32.5l-32 77q78 41 148 41q61 0 106 -26q73 -42 73 -139v-99v-3q0 -49 5 -79t21 -79zM206 231
q-36 0 -62 -23.5t-26 -56.5q0 -34 26 -56.5t66 -22.5q41 0 69 23t28 57q0 35 -28 57t-73 22zM188 511h-81q38 83 60 152h115q20 -72 54 -152h-77l-39 70z" />
    <glyph glyph-name="atilde" unicode="&#xe3;" horiz-adv-x="456" 
d="M334 -10l-19 54q-49 -50 -121 -50q-68 0 -114.5 45.5t-46.5 112.5q0 68 49 112t124 44q25 0 53.5 -10t39.5 -23q-2 51 -23.5 70.5t-76.5 19.5q-26 0 -44 -6.5t-66 -32.5l-32 77q78 41 148 41q61 0 106 -26q73 -42 73 -139v-99v-3q0 -49 5 -79t21 -79zM206 231
q-36 0 -62 -23.5t-26 -56.5q0 -34 26 -56.5t66 -22.5q41 0 69 23t28 57q0 35 -28 57t-73 22zM141 512l-81 5q11 103 91 103q22 0 96 -24q9 -4 21 -4q21 0 26 29l89 -5q-6 -56 -28 -81t-65 -25q-18 0 -30 3t-67 23q-13 5 -24 5q-20 0 -28 -29z" />
    <glyph glyph-name="adieresis" unicode="&#xe4;" horiz-adv-x="456" 
d="M334 -10l-19 54q-49 -50 -121 -50q-68 0 -114.5 45.5t-46.5 112.5q0 68 49 112t124 44q25 0 53.5 -10t39.5 -23q-2 51 -23.5 70.5t-76.5 19.5q-26 0 -44 -6.5t-66 -32.5l-32 77q78 41 148 41q61 0 106 -26q73 -42 73 -139v-99v-3q0 -49 5 -79t21 -79zM206 231
q-36 0 -62 -23.5t-26 -56.5q0 -34 26 -56.5t66 -22.5q41 0 69 23t28 57q0 35 -28 57t-73 22zM141 634q28 0 47 -18t19 -44t-18.5 -44t-45.5 -18q-26 0 -43 18t-17 45q0 25 17 43t41 18zM297 636q25 0 43 -18t18 -43q0 -27 -17.5 -44.5t-43.5 -17.5t-44 18t-18 45
q0 25 18 42.5t44 17.5z" />
    <glyph glyph-name="aring" unicode="&#xe5;" horiz-adv-x="456" 
d="M334 -10l-19 54q-49 -50 -121 -50q-68 0 -114.5 45.5t-46.5 112.5q0 68 49 112t124 44q25 0 53.5 -10t39.5 -23q-2 51 -23.5 70.5t-76.5 19.5q-26 0 -44 -6.5t-66 -32.5l-32 77q78 41 148 41q61 0 106 -26q73 -42 73 -139v-99v-3q0 -49 5 -79t21 -79zM206 231
q-36 0 -62 -23.5t-26 -56.5q0 -34 26 -56.5t66 -22.5q41 0 69 23t28 57q0 35 -28 57t-73 22zM221 699q40 0 67.5 -27.5t27.5 -66.5t-28 -66.5t-66 -27.5q-40 0 -67.5 28t-27.5 67q0 38 28 65.5t66 27.5zM222 647q-17 0 -30 -12.5t-13 -28.5q0 -18 12.5 -30.5t30.5 -12.5
q17 0 29.5 12.5t12.5 29.5t-12.5 29.5t-29.5 12.5z" />
    <glyph glyph-name="ae" unicode="&#xe6;" horiz-adv-x="779" 
d="M92 326l-32 77q77 42 147 42q91 0 156 -65q72 68 160 68q52 0 99.5 -24t75.5 -65q20 -29 28.5 -64t12.5 -100h-351q16 -64 43 -88q38 -33 92 -33q77 0 148 78l64 -56q-54 -58 -98 -81q-58 -29 -116 -29q-52 0 -101 23.5t-76 60.5q-38 -43 -70 -59.5t-75 -16.5
q-70 0 -116.5 45t-46.5 112q0 68 48.5 112.5t124.5 44.5q26 0 54 -9.5t39 -22.5q-2 51 -24 70.5t-77 19.5q-26 0 -43.5 -6.5t-65.5 -33.5zM209 231q-36 0 -62 -23.5t-26 -56.5q0 -34 26 -56.5t66 -22.5q41 0 69 23t28 57q0 35 -28 57t-73 22zM398 280h242q-18 47 -45 65
q-31 21 -71 21q-41 0 -69.5 -19.5t-56.5 -66.5z" />
    <glyph glyph-name="ccedilla" unicode="&#xe7;" horiz-adv-x="477" 
d="M278 -13v-49q59 -14 59 -63q0 -31 -20 -51.5t-50 -20.5q-29 0 -63 26l21 28q21 -17 37 -17q15 0 25.5 9.5t10.5 23.5q0 27 -56 36v79q-90 10 -146 71t-56 150q0 100 67 167.5t165 67.5q44 0 79.5 -13.5t85.5 -49.5l-53 -73q-50 50 -113 50q-61 0 -101 -41.5t-40 -103.5
q0 -61 38.5 -101.5t95.5 -40.5q67 0 129 69l66 -66q-51 -45 -91 -64t-90 -23z" />
    <glyph glyph-name="egrave" unicode="&#xe8;" horiz-adv-x="522" 
d="M481 194h-349q4 -43 25 -71q40 -50 108 -50q79 0 148 78l64 -55q-55 -59 -98 -81q-58 -29 -116 -29q-95 0 -159 65t-64 162q0 99 65.5 167t160.5 68q52 0 99 -24t75 -65q20 -30 29 -65.5t12 -99.5zM140 279h242q-13 38 -34 57q-35 30 -81 30q-80 0 -127 -87zM175 651h92
l79 -136h-91z" />
    <glyph glyph-name="eacute" unicode="&#xe9;" horiz-adv-x="522" 
d="M481 194h-349q4 -43 25 -71q40 -50 108 -50q79 0 148 78l64 -55q-55 -59 -98 -81q-58 -29 -116 -29q-95 0 -159 65t-64 162q0 99 65.5 167t160.5 68q52 0 99 -24t75 -65q20 -30 29 -65.5t12 -99.5zM140 279h242q-13 38 -34 57q-35 30 -81 30q-80 0 -127 -87zM180 515
l77 135h83l-72 -135h-88z" />
    <glyph glyph-name="ecircumflex" unicode="&#xea;" horiz-adv-x="522" 
d="M481 194h-349q4 -43 25 -71q40 -50 108 -50q79 0 148 78l64 -55q-55 -59 -98 -81q-58 -29 -116 -29q-95 0 -159 65t-64 162q0 99 65.5 167t160.5 68q52 0 99 -24t75 -65q20 -30 29 -65.5t12 -99.5zM140 279h242q-13 38 -34 57q-35 30 -81 30q-80 0 -127 -87zM227 515h-81
q38 83 60 152h115q20 -72 54 -152h-77l-39 70z" />
    <glyph glyph-name="edieresis" unicode="&#xeb;" horiz-adv-x="522" 
d="M481 194h-349q4 -43 25 -71q40 -50 108 -50q79 0 148 78l64 -55q-55 -59 -98 -81q-58 -29 -116 -29q-95 0 -159 65t-64 162q0 99 65.5 167t160.5 68q52 0 99 -24t75 -65q20 -30 29 -65.5t12 -99.5zM140 279h242q-13 38 -34 57q-35 30 -81 30q-80 0 -127 -87zM180 639
q28 0 47 -18t19 -44t-18.5 -44t-45.5 -18q-26 0 -43 18t-17 45q0 25 17 43t41 18zM336 640q26 0 43.5 -18t17.5 -43q0 -27 -17.5 -44.5t-43.5 -17.5t-44 18t-18 45q0 25 18 42.5t44 17.5z" />
    <glyph glyph-name="igrave" unicode="&#xec;" horiz-adv-x="220" 
d="M20 637h91l79 -136h-90zM156 0h-102q7 77 7 107v227q0 21 -7 99h102q-6 -68 -6 -113v-213q0 -3 2 -49z" />
    <glyph glyph-name="iacute" unicode="&#xed;" horiz-adv-x="220" 
d="M25 501l76 135h84l-72 -135h-88zM156 0h-102q7 77 7 107v227q0 21 -7 99h102q-6 -68 -6 -113v-213q0 -3 2 -49z" />
    <glyph glyph-name="icircumflex" unicode="&#xee;" horiz-adv-x="220" 
d="M72 501h-81q37 83 60 152h115q17 -65 53 -152h-76l-40 70zM158 0h-102q7 77 7 107v227q0 21 -7 99h102q-6 -68 -6 -113v-213q0 -3 2 -49z" />
    <glyph glyph-name="idieresis" unicode="&#xef;" horiz-adv-x="220" 
d="M27 625q26 0 45 -18.5t19 -43.5q0 -26 -18.5 -44t-45.5 -18q-25 0 -42.5 18t-17.5 44t17.5 44t42.5 18zM182 626q26 0 43.5 -18t17.5 -43q0 -27 -17.5 -44.5t-44.5 -17.5q-26 0 -43.5 18t-17.5 46q0 24 18.5 41.5t43.5 17.5zM158 0h-102q7 77 7 107v227q0 21 -7 99h102
q-6 -68 -6 -113v-213q0 -3 2 -49z" />
    <glyph glyph-name="eth" unicode="&#xf0;" horiz-adv-x="511" 
d="M323 576l14 -15l21 -24q22 -24 52 -72.5t50 -91.5q38 -84 38 -153q0 -96 -67 -162.5t-163 -66.5t-161 64.5t-65 160.5q0 98 65 164t161 66q42 0 91 -19q-47 101 -87 131l-101 -38l-16 39l80 29q-30 25 -53.5 38t-67.5 29l12 23q49 -12 81.5 -27t73.5 -44l111 37l16 -39z
M271 363q-60 0 -101.5 -43t-41.5 -105q0 -59 41 -101.5t98 -42.5q56 0 99.5 45.5t43.5 103.5q0 61 -40 102t-99 41z" />
    <glyph glyph-name="ntilde" unicode="&#xf1;" 
d="M40 423l81 28q9 -23 14 -44q61 41 122 41q51 0 92.5 -22.5t64.5 -63.5q22 -39 22 -111v-190q0 -37 2 -61h-98q9 63 9 117v156q0 44 -25 68t-72 24q-56 0 -100 -43v-240q0 -27 4 -82h-97q5 46 5 93v217q0 36 -3 51t-21 62zM158 519l-80 5q9 103 91 103q22 0 95 -24
q11 -4 21 -4q21 0 27 29l88 -5q-5 -55 -27 -80.5t-65 -25.5q-18 0 -30 3.5t-67 22.5q-13 5 -24 5t-17.5 -6.5t-11.5 -22.5z" />
    <glyph glyph-name="ograve" unicode="&#xf2;" horiz-adv-x="539" 
d="M268 448q97 0 163.5 -64t66.5 -159q0 -100 -66.5 -169t-164.5 -69q-97 0 -162 66t-65 164q0 96 66.5 163.5t161.5 67.5zM267 364q-59 0 -99.5 -42t-40.5 -104q0 -61 41.5 -104.5t98.5 -43.5q60 0 101.5 44t41.5 107q0 61 -41 102t-102 41zM184 651h91l79 -137h-90z" />
    <glyph glyph-name="oacute" unicode="&#xf3;" horiz-adv-x="539" 
d="M268 448q97 0 163.5 -64t66.5 -159q0 -100 -66.5 -169t-164.5 -69q-97 0 -162 66t-65 164q0 96 66.5 163.5t161.5 67.5zM267 364q-59 0 -99.5 -42t-40.5 -104q0 -61 41.5 -104.5t98.5 -43.5q60 0 101.5 44t41.5 107q0 61 -41 102t-102 41zM189 514l76 136h84l-72 -136
h-88z" />
    <glyph glyph-name="ocircumflex" unicode="&#xf4;" horiz-adv-x="539" 
d="M268 448q97 0 163.5 -64t66.5 -159q0 -100 -66.5 -169t-164.5 -69q-97 0 -162 66t-65 164q0 96 66.5 163.5t161.5 67.5zM267 364q-59 0 -99.5 -42t-40.5 -104q0 -61 41.5 -104.5t98.5 -43.5q60 0 101.5 44t41.5 107q0 61 -41 102t-102 41zM236 515h-81q37 83 60 152h115
q17 -65 53 -152h-76l-40 70z" />
    <glyph glyph-name="otilde" unicode="&#xf5;" horiz-adv-x="539" 
d="M268 448q97 0 163.5 -64t66.5 -159q0 -100 -66.5 -169t-164.5 -69q-97 0 -162 66t-65 164q0 96 66.5 163.5t161.5 67.5zM267 364q-59 0 -99.5 -42t-40.5 -104q0 -61 41.5 -104.5t98.5 -43.5q60 0 101.5 44t41.5 107q0 61 -41 102t-102 41zM188 515l-80 5q9 104 91 104
q22 0 95 -24q11 -4 21 -4q21 0 27 29l88 -6q-5 -55 -27 -80t-65 -25q-18 0 -30 3.5t-67 22.5q-13 5 -24 5t-17.5 -6.5t-11.5 -23.5z" />
    <glyph glyph-name="odieresis" unicode="&#xf6;" horiz-adv-x="539" 
d="M268 448q97 0 163.5 -64t66.5 -159q0 -100 -66.5 -169t-164.5 -69q-97 0 -162 66t-65 164q0 96 66.5 163.5t161.5 67.5zM267 364q-59 0 -99.5 -42t-40.5 -104q0 -61 41.5 -104.5t98.5 -43.5q60 0 101.5 44t41.5 107q0 61 -41 102t-102 41zM188 638q28 0 47 -18t19 -44
t-18.5 -44t-45.5 -18q-26 0 -43 18t-17 45q0 25 17 43t41 18zM345 639q25 0 43 -17.5t18 -43.5q0 -27 -17.5 -44.5t-43.5 -17.5t-44 18t-18 45q0 25 18 42.5t44 17.5z" />
    <glyph glyph-name="divide" unicode="&#xf7;" 
d="M251 583q22 0 37.5 -16t15.5 -38q0 -23 -16 -38.5t-38 -15.5t-38 16t-16 38q0 23 16 38.5t39 15.5zM251 208q22 0 37.5 -16t15.5 -38t-16 -38t-38 -16t-38 16t-16 38q0 23 16 38.5t39 15.5zM9 374h481v-65h-481v65z" />
    <glyph glyph-name="oslash" unicode="&#xf8;" horiz-adv-x="539" 
d="M374 425l42 73l26 -15l-42 -73q45 -30 71.5 -80t26.5 -105q0 -100 -67 -168.5t-165 -68.5q-51 0 -96 20l-47 -82l-27 15l47 82q-48 30 -75.5 81t-27.5 111q0 99 66.5 166t164.5 67q54 0 103 -23zM186 98l145 251q-30 15 -63 15q-60 0 -101 -42t-41 -103q0 -75 60 -121z
M356 334l-144 -252q22 -11 54 -11q61 0 102.5 43.5t41.5 107.5q0 70 -54 112z" />
    <glyph glyph-name="ugrave" unicode="&#xf9;" horiz-adv-x="493" 
d="M58 433h94q-6 -67 -6 -137v-130q0 -43 25.5 -68.5t68.5 -25.5q39 0 101 39v242q0 51 -3 80h96q-6 -60 -6 -108v-208q0 -34 25 -103l-78 -28l-16 45q-55 -41 -122 -41q-49 0 -91.5 23t-65.5 61q-22 38 -22 109v250zM170 637h92l79 -136h-91z" />
    <glyph glyph-name="uacute" unicode="&#xfa;" horiz-adv-x="493" 
d="M58 433h94q-6 -67 -6 -137v-130q0 -43 25.5 -68.5t68.5 -25.5q39 0 101 39v242q0 51 -3 80h96q-6 -60 -6 -108v-208q0 -34 25 -103l-78 -28l-16 45q-55 -41 -122 -41q-49 0 -91.5 23t-65.5 61q-22 38 -22 109v250zM175 501l76 135h84l-72 -135h-88z" />
    <glyph glyph-name="ucircumflex" unicode="&#xfb;" horiz-adv-x="493" 
d="M58 433h94q-6 -67 -6 -137v-130q0 -43 25.5 -68.5t68.5 -25.5q39 0 101 39v242q0 51 -3 80h96q-6 -60 -6 -108v-208q0 -34 25 -103l-78 -28l-16 45q-55 -41 -122 -41q-49 0 -91.5 23t-65.5 61q-22 38 -22 109v250zM222 501h-81q38 83 60 152h115q20 -72 53 -152h-76
l-39 70z" />
    <glyph glyph-name="udieresis" unicode="&#xfc;" horiz-adv-x="493" 
d="M58 433h94q-6 -67 -6 -137v-130q0 -43 25.5 -68.5t68.5 -25.5q39 0 101 39v242q0 51 -3 80h96q-6 -60 -6 -108v-208q0 -34 25 -103l-78 -28l-16 45q-55 -41 -122 -41q-49 0 -91.5 23t-65.5 61q-22 38 -22 109v250zM175 625q28 0 47 -18t19 -44t-18.5 -44t-45.5 -18
q-26 0 -43 18t-17 45q0 25 17 43t41 18zM331 626q25 0 43 -18t18 -43q0 -27 -17.5 -44.5t-43.5 -17.5t-44 18t-18 45q0 25 18 42.5t44 17.5z" />
    <glyph glyph-name="yacute" unicode="&#xfd;" horiz-adv-x="481" 
d="M4 416l90 45l154 -336l119 308h109l-182 -395q-39 -90 -54.5 -117.5t-44.5 -56.5q-33 -35 -81 -35q-40 0 -102 25l30 80q36 -23 64 -23q26 0 44 23t53 100zM160 527l76 136h84l-72 -136h-88z" />
    <glyph glyph-name="thorn" unicode="&#xfe;" horiz-adv-x="525" 
d="M156 10v-144q0 -3 2 -27l3 -24h-100q6 110 6 122v658q0 32 -6 72h100q-5 -68 -5 -85v-150q46 11 81 11q113 0 176.5 -60.5t63.5 -167.5q0 -108 -72 -171q-66 -56 -138 -56q-39 0 -111 22zM156 344v-241q62 -29 99 -29q56 0 96 42.5t40 101.5q0 65 -43 104.5t-114 39.5
q-34 0 -78 -18z" />
    <glyph glyph-name="ydieresis" unicode="&#xff;" horiz-adv-x="481" 
d="M4 416l90 45l154 -336l119 308h109l-182 -395q-39 -90 -54.5 -117.5t-44.5 -56.5q-33 -35 -81 -35q-40 0 -102 25l30 80q36 -23 64 -23q26 0 44 23t53 100zM161 651q26 0 45 -18.5t19 -43.5q0 -26 -18.5 -44t-45.5 -18q-25 0 -42.5 18t-17.5 44t17.5 44t42.5 18zM316 653
q26 0 43.5 -17.5t17.5 -43.5q0 -27 -17.5 -44.5t-44.5 -17.5q-26 0 -43.5 18t-17.5 46q0 24 18.5 41.5t43.5 17.5z" />
    <glyph glyph-name="Amacron" unicode="&#x100;" horiz-adv-x="565" 
d="M0 0l251 667h67l247 -667h-97l-86 233h-199l-82 -233h-101zM214 321h136l-69 187zM101 806h363v-78h-363v78z" />
    <glyph glyph-name="amacron" unicode="&#x101;" horiz-adv-x="456" 
d="M334 -10l-19 54q-49 -50 -121 -50q-68 0 -114.5 45.5t-46.5 112.5q0 68 49 112t124 44q25 0 53.5 -10t39.5 -23q-2 51 -23.5 70.5t-76.5 19.5q-26 0 -44 -6.5t-66 -32.5l-32 77q78 41 148 41q61 0 106 -26q73 -42 73 -139v-99v-3q0 -49 5 -79t21 -79zM206 231
q-36 0 -62 -23.5t-26 -56.5q0 -34 26 -56.5t66 -22.5q41 0 69 23t28 57q0 35 -28 57t-73 22zM64 586h330v-78h-330v78z" />
    <glyph glyph-name="Abreve" unicode="&#x102;" horiz-adv-x="565" 
d="M0 0l251 667h67l247 -667h-97l-86 233h-199l-82 -233h-101zM214 321h136l-69 187zM121 885h80q17 -37 34.5 -50.5t46.5 -13.5q30 0 47.5 13.5t34.5 50.5h80q-10 -52 -37 -84q-47 -57 -125 -57q-76 0 -124 57q-27 32 -37 84z" />
    <glyph glyph-name="abreve" unicode="&#x103;" horiz-adv-x="456" 
d="M334 -10l-19 54q-49 -50 -121 -50q-68 0 -114.5 45.5t-46.5 112.5q0 68 49 112t124 44q25 0 53.5 -10t39.5 -23q-2 51 -23.5 70.5t-76.5 19.5q-26 0 -44 -6.5t-66 -32.5l-32 77q78 41 148 41q61 0 106 -26q73 -42 73 -139v-99v-3q0 -49 5 -79t21 -79zM206 231
q-36 0 -62 -23.5t-26 -56.5q0 -34 26 -56.5t66 -22.5q41 0 69 23t28 57q0 35 -28 57t-73 22zM67 618h80q17 -37 34.5 -50.5t47.5 -13.5t47 13.5t34 50.5h80q-10 -52 -37 -84q-47 -57 -124 -57t-125 57q-25 30 -37 84z" />
    <glyph glyph-name="Aogonek" unicode="&#x104;" horiz-adv-x="565" 
d="M318 667l247 -665q-46 -16 -66 -36t-20 -51q0 -45 46 -45q19 0 46 19l-8 -36q-30 -26 -69 -26q-43 0 -67.5 18t-24.5 49q0 51 66 106l-86 233h-199l-82 -233h-101l251 667h67zM214 321h136l-69 187z" />
    <glyph glyph-name="aogonek" unicode="&#x105;" horiz-adv-x="456" 
d="M384 180v-3q0 -49 5 -79t21 -79q-76 -41 -76 -83q0 -31 37 -31q25 0 55 21l-8 -76q-32 -18 -65 -18q-41 0 -68.5 23t-27.5 57q0 58 68 103l-10 29q-50 -50 -121 -50q-68 0 -114.5 45.5t-46.5 112.5q0 68 49 112t124 44q25 0 53.5 -10t39.5 -23q-2 51 -23.5 70.5
t-76.5 19.5q-26 0 -44 -6.5t-66 -32.5l-32 77q78 41 148 41q59 0 106 -26q73 -40 73 -139v-99zM207 231q-36 0 -62 -23t-26 -55q0 -36 25.5 -58.5t65.5 -22.5q41 0 69 23t28 57q0 35 -27.5 57t-72.5 22z" />
    <glyph glyph-name="Cacute" unicode="&#x106;" horiz-adv-x="664" 
d="M612 592l-54 -71q-47 42 -87 59t-91 17q-107 0 -182.5 -79t-75.5 -192q0 -108 72 -180.5t180 -72.5q59 0 103.5 19.5t90.5 65.5l55 -75q-69 -55 -122.5 -76t-122.5 -21q-147 0 -246 98t-99 244q0 151 100.5 253.5t247.5 102.5q94 0 166 -42q23 -12 65 -50zM252 729
l76 135h84l-72 -135h-88z" />
    <glyph glyph-name="cacute" unicode="&#x107;" horiz-adv-x="477" 
d="M437 381l-53 -74q-50 51 -113 51q-61 0 -101 -41.5t-40 -104.5q0 -60 38.5 -101t95.5 -41q66 0 129 69l66 -65q-57 -50 -99.5 -69t-94.5 -19q-96 0 -160.5 64t-64.5 159q0 99 67 167t165 68q44 0 80 -13.5t85 -49.5zM158 485l76 136h84l-72 -136h-88z" />
    <glyph glyph-name="Ccaron" unicode="&#x10c;" horiz-adv-x="664" 
d="M612 592l-54 -71q-47 42 -87 59t-91 17q-107 0 -182.5 -79t-75.5 -192q0 -108 72 -180.5t180 -72.5q59 0 103.5 19.5t90.5 65.5l55 -75q-69 -55 -122.5 -76t-122.5 -21q-147 0 -246 98t-99 244q0 151 100.5 253.5t247.5 102.5q94 0 166 -42q23 -12 65 -50zM365 886h81
q-37 -83 -60 -152h-115q-19 72 -53 152h76l40 -70z" />
    <glyph glyph-name="ccaron" unicode="&#x10d;" horiz-adv-x="477" 
d="M437 381l-53 -74q-50 51 -113 51q-61 0 -101 -41.5t-40 -104.5q0 -60 38.5 -101t95.5 -41q66 0 129 69l66 -65q-57 -50 -99.5 -69t-94.5 -19q-96 0 -160.5 64t-64.5 159q0 99 67 167t165 68q44 0 80 -13.5t85 -49.5zM305 635h81q-38 -83 -60 -152h-115q-20 72 -54 152h76
l40 -70z" />
    <glyph glyph-name="Dcaron" unicode="&#x10e;" horiz-adv-x="625" 
d="M72 104v487q0 22 -3 76q91 15 136 15q106 0 181 -35q89 -43 142 -129.5t53 -189.5q0 -148 -99 -245.5t-250 -97.5q-90 0 -163 20q3 38 3 99zM165 596v-524q35 -4 54 -4q141 0 215 92q58 72 58 163q0 61 -22.5 114.5t-63.5 89.5q-78 69 -199 69h-42zM284 886h81
q-37 -83 -60 -152h-115q-19 72 -53 152h76l40 -70z" />
    <glyph glyph-name="dcaron" unicode="&#x10f;" horiz-adv-x="511" 
d="M357 425v188q0 7 -2 54h97q-6 -58 -6 -91v-538q-54 -29 -91 -40t-81 -11q-102 0 -168 63.5t-66 161.5t66 163t166 65q39 0 85 -15zM357 90v252q-47 19 -81 19q-62 0 -106 -43.5t-44 -104.5q0 -62 42 -103t106 -41q37 0 83 21zM503 623l64 41q49 -43 49 -91
q0 -55 -64 -109l-49 31q35 49 35 68q0 22 -35 60z" />
    <glyph glyph-name="Dcroat" unicode="&#x110;" horiz-adv-x="625" 
d="M72 306h-57v85h57v200q0 21 -3 77q93 14 136 14q106 0 181 -35q89 -43 142 -129.5t53 -188.5q0 -148 -99 -245.5t-249 -97.5q-91 0 -164 20q3 38 3 99v201zM165 306v-234q39 -3 54 -3q141 0 215 92q58 72 58 163q0 60 -22.5 113.5t-63.5 89.5q-78 69 -199 69h-42v-205
h131v-85h-131z" />
    <glyph glyph-name="dcroat" unicode="&#x111;" horiz-adv-x="511" 
d="M357 501h-86v63h86v51q0 8 -2 52h97q-6 -54 -6 -89v-14h33v-63h-33v-461q-54 -29 -91 -40t-81 -11q-102 0 -168 63.5t-66 162.5q0 97 66.5 162.5t165.5 65.5q36 0 85 -15v73zM357 93v251q-45 20 -80 20q-63 0 -107 -43.5t-44 -105.5t42 -103t106 -41q38 0 83 22z" />
    <glyph glyph-name="Emacron" unicode="&#x112;" horiz-adv-x="537" 
d="M70 0v667h426l-28 -88h-304v-189h147q78 0 134 2l-26 -88h-255v-220h196q38 0 150 7l-23 -91h-417zM86 814h364v-78h-364v78z" />
    <glyph glyph-name="emacron" unicode="&#x113;" horiz-adv-x="522" 
d="M481 194h-349q4 -43 25 -71q40 -50 108 -50q79 0 148 78l64 -55q-55 -59 -98 -81q-58 -29 -116 -29q-95 0 -159 65t-64 162q0 99 65.5 167t160.5 68q52 0 99 -24t75 -65q20 -30 29 -65.5t12 -99.5zM140 279h242q-13 38 -34 57q-35 30 -81 30q-80 0 -127 -87zM96 586h329
v-78h-329v78z" />
    <glyph glyph-name="Edotaccent" unicode="&#x116;" horiz-adv-x="537" 
d="M70 0v667h426l-28 -88h-304v-189h147q78 0 134 2l-26 -88h-255v-220h196q38 0 150 7l-23 -91h-417zM266 852q26 0 45 -18.5t19 -43.5q0 -26 -18.5 -44t-45.5 -18q-25 0 -42.5 18t-17.5 44t17.5 44t42.5 18z" />
    <glyph glyph-name="edotaccent" unicode="&#x117;" horiz-adv-x="522" 
d="M481 194h-349q4 -43 25 -71q40 -50 108 -50q79 0 148 78l64 -55q-55 -59 -98 -81q-58 -29 -116 -29q-95 0 -159 65t-64 162q0 99 65.5 167t160.5 68q52 0 99 -24t75 -65q20 -30 29 -65.5t12 -99.5zM140 279h242q-13 38 -34 57q-35 30 -81 30q-80 0 -127 -87zM261 609
q25 0 43.5 -18.5t18.5 -43.5t-18.5 -43.5t-43.5 -18.5q-26 0 -44 18.5t-18 44.5q0 25 18.5 43t43.5 18z" />
    <glyph glyph-name="Eogonek" unicode="&#x118;" horiz-adv-x="537" 
d="M487 0h-43q-66 -28 -66 -81q0 -45 46 -45q19 0 46 20l-8 -36q-30 -27 -69 -27q-43 0 -67.5 18t-24.5 49q0 56 66 102h-297v667h426l-28 -88h-304v-189h147q78 0 134 2l-26 -88h-255v-220h196q38 0 150 7z" />
    <glyph glyph-name="eogonek" unicode="&#x119;" horiz-adv-x="522" 
d="M413 151l64 -55q-36 -40 -60 -58t-65 -35q-39 -16 -52.5 -23.5t-25.5 -21.5q-21 -24 -21 -43q0 -31 37 -31q25 0 55 21l-9 -76q-30 -18 -64 -18q-40 0 -68 23t-28 57q0 55 58 96q-88 13 -141 75t-53 151q0 99 65.5 167t160.5 68q52 0 99.5 -24t74.5 -65q20 -30 29 -65.5
t12 -99.5h-349q4 -43 25 -71q40 -50 108 -50q79 0 148 78zM140 279h242q-13 38 -34 57q-35 30 -81 30q-80 0 -127 -87z" />
    <glyph glyph-name="Ecaron" unicode="&#x11a;" horiz-adv-x="537" 
d="M70 0v667h426l-28 -88h-304v-189h147q78 0 134 2l-26 -88h-255v-220h196q38 0 150 7l-23 -91h-417zM301 886h81q-37 -83 -60 -152h-115q-19 72 -53 152h76l40 -70z" />
    <glyph glyph-name="ecaron" unicode="&#x11b;" horiz-adv-x="522" 
d="M481 194h-349q4 -43 25 -71q40 -50 108 -50q79 0 148 78l64 -55q-55 -59 -98 -81q-58 -29 -116 -29q-95 0 -159 65t-64 162q0 99 65.5 167t160.5 68q52 0 99 -24t75 -65q20 -30 29 -65.5t12 -99.5zM140 279h242q-13 38 -34 57q-35 30 -81 30q-80 0 -127 -87zM294 635h80
q-37 -84 -59 -152h-115q-20 72 -54 152h76l40 -70z" />
    <glyph glyph-name="Gbreve" unicode="&#x11e;" horiz-adv-x="752" 
d="M670 546l-64 -64q-48 58 -96 83q-62 31 -127 31q-110 0 -186 -75.5t-76 -185.5q0 -113 74.5 -190t183.5 -77q103 0 174 66q37 35 65 101h-178q-3 0 -9 -0.5t-17 -1t-20 -0.5l-41 -1v91h28l56 -2h284q-5 -67 -17.5 -109t-41.5 -85q-47 -68 -120.5 -106t-161.5 -38
q-149 0 -248.5 99.5t-99.5 248.5q0 150 102 251t253 101q82 0 149 -32.5t134 -104.5zM215 885h79q17 -37 34.5 -50.5t47.5 -13.5t47.5 13.5t34.5 50.5h80q-12 -54 -37 -84q-49 -57 -125 -57t-124 57q-27 32 -37 84z" />
    <glyph glyph-name="gbreve" unicode="&#x11f;" horiz-adv-x="549" 
d="M63 -88l71 55q26 -42 56 -59.5t74 -17.5q30 0 57.5 11t40.5 28q17 23 26 96q-53 -35 -120 -35q-98 0 -163 64t-65 161q0 98 66.5 165t163.5 67q52 0 98 -13.5t117 -50.5q-18 -78 -18 -119q0 -73 6 -212q1 -9 1 -27q0 -113 -63 -168q-52 -45 -149 -45q-61 0 -106 22.5
t-93 77.5zM382 107q-5 80 -5 109q0 42 6 122q-57 26 -104 26q-67 0 -110 -41.5t-43 -106.5q0 -62 40.5 -103.5t101.5 -41.5q64 0 114 36zM113 618h80q17 -37 34 -50.5t47 -13.5t47.5 13.5t34.5 50.5h80q-12 -54 -37 -84q-49 -57 -125 -57q-77 0 -124 57q-27 32 -37 84z" />
    <glyph glyph-name="Gcommaaccent" unicode="&#x122;" horiz-adv-x="752" 
d="M670 546l-64 -64q-48 58 -96 83q-62 31 -127 31q-110 0 -186 -75.5t-76 -185.5q0 -113 74.5 -190t183.5 -77q103 0 174 66q37 35 65 101h-178q-3 0 -9 -0.5t-17 -1t-20 -0.5l-41 -1v91h28l56 -2h284q-5 -67 -17.5 -109t-41.5 -85q-47 -68 -120.5 -106t-161.5 -38
q-149 0 -248.5 99.5t-99.5 248.5q0 150 102 251t253 101q82 0 149 -32.5t134 -104.5zM318 -85l64 41q49 -45 49 -91q0 -55 -64 -109l-49 31q35 47 35 67q0 23 -35 61z" />
    <glyph glyph-name="gcommaaccent" unicode="&#x123;" horiz-adv-x="549" 
d="M63 -88l71 55q26 -42 56 -59.5t74 -17.5q30 0 57.5 11t40.5 28q17 23 26 96q-53 -35 -120 -35q-98 0 -163 64t-65 161q0 98 66.5 165t163.5 67q52 0 98 -13.5t117 -50.5q-18 -78 -18 -119q0 -73 6 -212q1 -9 1 -27q0 -113 -63 -168q-52 -45 -149 -45q-61 0 -106 22.5
t-93 77.5zM382 107q-5 80 -5 109q0 42 6 122q-57 26 -104 26q-67 0 -110 -41.5t-43 -106.5q0 -62 40.5 -103.5t101.5 -41.5q64 0 114 36zM339 537l-64 -40q-49 43 -49 91q0 54 64 108l50 -30q-36 -49 -36 -68q0 -23 35 -61z" />
    <glyph glyph-name="Imacron" unicode="&#x12a;" horiz-adv-x="238" 
d="M168 0h-102q6 85 6 110v432q0 81 -4 125h104q-8 -71 -8 -115v-444q0 -47 4 -108zM-63 802h364v-78h-364v78z" />
    <glyph glyph-name="imacron" unicode="&#x12b;" horiz-adv-x="220" 
d="M157 0h-102q7 77 7 107v227q0 21 -7 99h102q-6 -68 -6 -113v-213q0 -3 2 -49zM-55 586h330v-78h-330v78z" />
    <glyph glyph-name="Iogonek" unicode="&#x12e;" horiz-adv-x="238" 
d="M168 0h-11q-76 -27 -76 -84q0 -45 46 -45q19 0 47 19l-9 -35q-30 -27 -69 -27q-43 0 -67.5 18t-24.5 49t16.5 55t54.5 50h-9q6 85 6 110v432q0 81 -4 125h104q-8 -71 -8 -114v-445q0 -47 4 -108z" />
    <glyph glyph-name="iogonek" unicode="&#x12f;" horiz-adv-x="220" 
d="M152 58l4 -58q-35 -1 -61 -26.5t-26 -57.5q0 -45 46 -45q18 0 47 20l-9 -36q-30 -27 -69 -27q-43 0 -67.5 18t-24.5 49t16.5 55t54.5 50h-9q7 77 7 107v227q0 21 -7 99h102q-6 -68 -6 -113v-213q0 -3 2 -49zM110 609q26 0 44 -18.5t18 -43.5t-18 -43.5t-44 -18.5
t-44 18.5t-18 44.5q0 25 18.5 43t43.5 18z" />
    <glyph glyph-name="Idotaccent" unicode="&#x130;" horiz-adv-x="238" 
d="M168 0h-102q6 85 6 110v432q0 81 -4 125h104q-8 -71 -8 -115v-444q0 -47 4 -108zM117 852q26 0 45 -18.5t19 -43.5q0 -26 -18.5 -44t-45.5 -18q-25 0 -42.5 18t-17.5 44t17.5 44t42.5 18z" />
    <glyph glyph-name="dotlessi" unicode="&#x131;" horiz-adv-x="220" 
d="M157 0h-102q7 77 7 107v227q0 21 -7 99h102q-6 -68 -6 -113v-213q0 -3 2 -49z" />
    <glyph glyph-name="Kcommaaccent" unicode="&#x136;" horiz-adv-x="565" 
d="M164 0h-97q1 28 1 80v502q0 54 -1 85h98l-1 -48q0 -15 -0.5 -32t-1 -25.5t-0.5 -10.5v-159l260 275h127l-325 -330l247 -228q30 -28 46 -42q20 -15 37 -31l-68 -69q-48 50 -98 96l-226 209v-194q0 -45 2 -78zM226 -63l65 41q49 -45 49 -91q0 -55 -64 -109l-50 31
q36 47 36 67q0 24 -36 61z" />
    <glyph glyph-name="kcommaaccent" unicode="&#x137;" horiz-adv-x="460" 
d="M155 0h-96q4 23 4 53v546q0 29 -4 68h99l-5 -42q-4 -29 -4 -46v-312l182 166h133q-15 -13 -45 -37q-15 -12 -43 -36l-145 -130l130 -120q28 -27 87 -74l-71 -70q-48 54 -101 104l-127 120v-110q0 -40 6 -80zM174 -60l64 41q49 -45 49 -91q0 -55 -64 -109l-50 31
q36 49 36 67q0 23 -35 61z" />
    <glyph glyph-name="Lacute" unicode="&#x139;" 
d="M69 667h105q-9 -71 -9 -110v-472h168q61 0 151 6l-26 -91h-386v589q0 2 -2 50zM170 729l76 135h84l-72 -135h-88z" />
    <glyph glyph-name="lacute" unicode="&#x13a;" horiz-adv-x="223" 
d="M161 0h-101q9 99 9 130v413q0 27 -5 124h101q-8 -92 -8 -121v-424q0 -84 4 -122zM112 728l76 135h84l-72 -135h-88z" />
    <glyph glyph-name="Lcommaaccent" unicode="&#x13b;" 
d="M69 667h105q-9 -71 -9 -110v-472h168q61 0 151 6l-26 -91h-386v589q0 2 -2 50zM194 -63l64 41q49 -45 49 -91q0 -55 -64 -109l-50 31q36 49 36 67q0 23 -35 61z" />
    <glyph glyph-name="lcommaaccent" unicode="&#x13c;" horiz-adv-x="223" 
d="M160 0h-101q9 93 9 130v413q0 27 -5 124h101q-8 -92 -8 -121v-424q0 -84 4 -122zM54 -60l65 41q49 -45 49 -91q0 -55 -64 -109l-50 31q36 48 36 67q0 24 -36 61z" />
    <glyph glyph-name="Lcaron" unicode="&#x13d;" 
d="M69 667h105q-9 -71 -9 -110v-472h168q61 0 151 6l-26 -91h-386v589q0 2 -2 50zM226 623l65 41q49 -43 49 -91q0 -54 -64 -109l-50 31q36 49 36 68q0 23 -36 60z" />
    <glyph glyph-name="lcaron" unicode="&#x13e;" horiz-adv-x="223" 
d="M161 0h-101q9 99 9 130v413q0 27 -5 124h101q-8 -92 -8 -121v-424q0 -84 4 -122zM212 628l64 41q49 -43 49 -91q0 -55 -64 -109l-50 31q36 49 36 68q0 22 -35 60z" />
    <glyph glyph-name="Lslash" unicode="&#x141;" 
d="M166 390l79 67v-65l-79 -68v-239h168q60 0 151 6l-26 -91h-386v245l-71 -59v65l71 60v278q0 3 -0.5 9.5t-1 19t-0.5 21.5l-2 28h105q-8 -71 -8 -110v-167z" />
    <glyph glyph-name="lslash" unicode="&#x142;" horiz-adv-x="223" 
d="M69 253l-68 -27v63l68 27v227q0 27 -5 124h101q-8 -92 -8 -121v-196l65 26v-63l-65 -26v-165q0 -84 4 -122h-101q9 91 9 130v123z" />
    <glyph glyph-name="Nacute" unicode="&#x143;" horiz-adv-x="625" 
d="M66 0l4 57q3 34 3 50v560h56l334 -465v360q0 4 -2 52l-2 53h99q-6 -77 -6 -100v-567h-49l-342 471v-380q0 -46 8 -91h-103zM232 729l76 135h84l-72 -135h-88z" />
    <glyph glyph-name="nacute" unicode="&#x144;" 
d="M40 423l81 28q9 -23 14 -44q61 41 122 41q50 0 92 -23t65 -63q22 -38 22 -111v-190q0 -37 2 -61h-98q9 66 9 117v156q0 44 -25 68t-72 24q-54 0 -100 -43v-240q0 -27 4 -82h-97q5 46 5 93v217q0 36 -3 51t-21 62zM171 485l76 136h83l-71 -136h-88z" />
    <glyph glyph-name="Ncommaaccent" unicode="&#x145;" horiz-adv-x="625" 
d="M66 0l4 57q3 34 3 50v560h56l334 -465v360q0 4 -2 52l-2 53h99q-6 -77 -6 -100v-567h-49l-342 471v-380q0 -46 8 -91h-103zM255 -63l65 41q49 -45 49 -91q0 -55 -64 -109l-50 31q36 49 36 67q0 24 -36 61z" />
    <glyph glyph-name="ncommaaccent" unicode="&#x146;" 
d="M40 423l81 28q9 -23 14 -44q61 41 122 41q50 0 92 -23t65 -63q22 -38 22 -111v-190q0 -37 2 -61h-98q9 66 9 117v156q0 44 -25 68t-72 24q-54 0 -100 -43v-240q0 -27 4 -82h-97q5 46 5 93v217q0 36 -3 51t-21 62zM194 -60l64 41q49 -43 49 -91q0 -55 -64 -109l-49 31
q35 48 35 67q0 23 -35 61z" />
    <glyph glyph-name="Ncaron" unicode="&#x147;" horiz-adv-x="625" 
d="M66 0l4 57q3 34 3 50v560h56l334 -465v360q0 4 -2 52l-2 53h99q-6 -77 -6 -100v-567h-49l-342 471v-380q0 -46 8 -91h-103zM345 886h81q-37 -83 -60 -152h-115q-17 65 -53 152h76l40 -70z" />
    <glyph glyph-name="ncaron" unicode="&#x148;" 
d="M40 423l81 28q9 -23 14 -44q61 41 122 41q50 0 92 -23t65 -63q22 -38 22 -111v-190q0 -37 2 -61h-98q9 66 9 117v156q0 44 -25 68t-72 24q-54 0 -100 -43v-240q0 -27 4 -82h-97q5 46 5 93v217q0 36 -3 51t-21 62zM284 635h81q-38 -83 -60 -152h-115q-20 72 -54 152h76
l40 -70z" />
    <glyph glyph-name="Omacron" unicode="&#x14c;" horiz-adv-x="759" 
d="M380 679q149 0 247 -99t98 -249q0 -143 -100 -243.5t-242 -100.5q-150 0 -249 97t-99 245q0 147 98 248q99 102 247 102zM384 594q-109 0 -184.5 -76t-75.5 -186q0 -111 74.5 -186.5t183.5 -75.5q106 0 181.5 77t75.5 186t-74.5 185t-180.5 76zM202 829h364v-78h-364v78z
" />
    <glyph glyph-name="omacron" unicode="&#x14d;" horiz-adv-x="539" 
d="M268 448q97 0 163.5 -64t66.5 -159q0 -100 -66.5 -169t-164.5 -69q-97 0 -162 66t-65 164q0 96 66.5 163.5t161.5 67.5zM267 364q-59 0 -99.5 -42t-40.5 -104q0 -61 41.5 -104.5t98.5 -43.5q60 0 101.5 44t41.5 107q0 61 -41 102t-102 41zM104 586h330v-78h-330v78z" />
    <glyph glyph-name="Ohungarumlaut" unicode="&#x150;" horiz-adv-x="759" 
d="M380 679q148 0 246.5 -99t98.5 -248q0 -143 -100 -244t-242 -101q-152 0 -250 97.5t-98 248.5q0 144 98 244q99 102 247 102zM386 594q-112 0 -187 -75.5t-75 -187.5q0 -110 74 -185.5t183 -75.5q107 0 182.5 77t75.5 186q0 107 -74.5 184t-178.5 77zM225 711l76 135h84
l-72 -135h-88zM409 711l76 135h84l-72 -135h-88z" />
    <glyph glyph-name="ohungarumlaut" unicode="&#x151;" horiz-adv-x="539" 
d="M273 448q94 0 159.5 -65t65.5 -158q0 -100 -66.5 -169t-164.5 -69q-96 0 -161.5 66t-65.5 161q0 100 66.5 167t166.5 67zM270 364q-62 0 -102.5 -41.5t-40.5 -104.5q0 -61 41.5 -104.5t99.5 -43.5q59 0 100.5 44t41.5 107q0 60 -40.5 101.5t-99.5 41.5zM123 486l76 136
h84l-72 -136h-88zM306 486l76 136h84l-72 -136h-88z" />
    <glyph glyph-name="OE" unicode="&#x152;" horiz-adv-x="1097" 
d="M630 578v89h427l-28 -88h-304v-189h147l68 1l66 1l-26 -88h-255v-220h196q40 0 150 7l-23 -91h-418v94q-61 -57 -119 -81.5t-131 -24.5q-148 0 -247 97.5t-99 243.5t98 249q98 102 250 102q73 0 130.5 -23.5t117.5 -78.5zM383 595q-110 0 -185.5 -76t-75.5 -188
q0 -109 74.5 -184.5t182.5 -75.5q107 0 183 76.5t76 185.5t-74.5 185.5t-180.5 76.5z" />
    <glyph glyph-name="oe" unicode="&#x153;" horiz-adv-x="878" 
d="M769 152l64 -56q-54 -58 -98 -81q-58 -29 -116 -29q-99 0 -175 83q-71 -81 -178 -81q-95 0 -160.5 65.5t-65.5 162.5q0 98 66.5 165t163.5 67q114 0 177 -83q42 44 82.5 63.5t91.5 19.5q53 0 100 -24t75 -64q20 -30 29 -65.5t12 -99.5h-351q16 -64 43 -88q38 -33 93 -33
q78 0 147 78zM267 364q-59 0 -99.5 -42t-40.5 -104q0 -61 41 -104.5t99 -43.5q59 0 101 44t42 107q0 61 -41 102t-102 41zM496 280h242q-14 43 -39 61q-34 25 -77 25q-40 0 -68.5 -19.5t-57.5 -66.5z" />
    <glyph glyph-name="Racute" unicode="&#x154;" horiz-adv-x="537" 
d="M64 0l2 50q2 58 2 60v490v64q63 16 135 16q111 0 180 -38q48 -28 76 -81t28 -117q0 -87 -49.5 -141.5t-138.5 -68.5l116 -110q39 -36 96 -84l-70 -68q-8 8 -22 24.5t-21 23.5l-56 66l-178 186l16 32q41 -4 63 -4q68 0 112.5 42.5t44.5 108.5t-51.5 107.5t-133.5 41.5
q-21 0 -56 -7v-514q0 -51 1 -79h-96zM188 729l76 135h84l-72 -135h-88z" />
    <glyph glyph-name="racute" unicode="&#x155;" horiz-adv-x="303" 
d="M40 421l80 27q14 -38 18 -68q21 33 42 46.5t52 13.5t70 -22l-27 -88q-36 18 -56 18q-69 0 -69 -117v-136q0 -23 8 -95h-100q4 33 4 102v191v6q1 5 1 16q0 53 -23 106zM72 485l76 136h84l-72 -136h-88z" />
    <glyph glyph-name="Rcommaaccent" unicode="&#x156;" horiz-adv-x="537" 
d="M64 0l2 50q2 58 2 60v490v64q63 16 135 16q111 0 180 -38q48 -28 76 -81t28 -117q0 -87 -49.5 -141.5t-138.5 -68.5l116 -110q39 -36 96 -84l-70 -68q-8 8 -22 24.5t-21 23.5l-56 66l-178 186l16 32q41 -4 63 -4q68 0 112.5 42.5t44.5 108.5t-51.5 107.5t-133.5 41.5
q-21 0 -56 -7v-514q0 -51 1 -79h-96zM212 -63l64 41q49 -45 49 -91q0 -55 -64 -109l-50 31q36 47 36 67q0 23 -35 61z" />
    <glyph glyph-name="rcommaaccent" unicode="&#x157;" horiz-adv-x="303" 
d="M40 421l80 27q14 -38 18 -68q21 33 42 46.5t52 13.5t70 -22l-27 -88q-36 18 -56 18q-69 0 -69 -117v-136q0 -23 8 -95h-100q4 33 4 102v191v6q1 5 1 16q0 53 -23 106zM55 -74l65 41q49 -43 49 -91q0 -55 -64 -109l-50 31q36 49 36 68q0 23 -36 60z" />
    <glyph glyph-name="Rcaron" unicode="&#x158;" horiz-adv-x="537" 
d="M64 0l2 50q2 58 2 60v490v64q63 16 135 16q111 0 180 -38q48 -28 76 -81t28 -117q0 -87 -49.5 -141.5t-138.5 -68.5l116 -110q39 -36 96 -84l-70 -68q-8 8 -22 24.5t-21 23.5l-56 66l-178 186l16 32q41 -4 63 -4q68 0 112.5 42.5t44.5 108.5t-51.5 107.5t-133.5 41.5
q-21 0 -56 -7v-514q0 -51 1 -79h-96zM301 886h81q-37 -83 -60 -152h-115q-19 72 -53 152h76l40 -70z" />
    <glyph glyph-name="rcaron" unicode="&#x159;" horiz-adv-x="303" 
d="M39 421l80 27q14 -38 18 -68q21 33 42 46.5t52 13.5t70 -22l-27 -88q-36 18 -56 18q-69 0 -69 -117v-136q0 -23 8 -95h-100q4 33 4 102v191v6q1 5 1 16q0 53 -23 106zM184 635h81q-37 -83 -60 -152h-115q-19 72 -53 152h76l40 -70z" />
    <glyph glyph-name="Sacute" unicode="&#x15a;" horiz-adv-x="513" 
d="M6 99l66 66q42 -52 82 -73.5t95 -21.5q60 0 97.5 30t37.5 77q0 42 -26 65q-20 17 -42.5 26t-135.5 44q-71 22 -109.5 67t-38.5 107q0 83 60 137t151 54q62 0 107.5 -22t93.5 -74l-54 -66q-42 44 -74.5 61.5t-71.5 17.5q-52 0 -88.5 -31t-36.5 -75q0 -37 31 -62
q17 -14 43 -24t87 -26q100 -28 147 -75t47 -119q0 -85 -63 -140.5t-158 -55.5q-131 0 -247 113zM177 729l76 135h84l-72 -135h-88z" />
    <glyph glyph-name="sacute" unicode="&#x15b;" horiz-adv-x="393" 
d="M17 62l52 64q35 -32 60 -44t56 -12q36 0 60 18.5t24 45.5q0 19 -12.5 31.5t-41.5 20.5q-83 24 -102 32t-38 24q-33 26 -33 77q0 53 42.5 90.5t103.5 37.5q69 0 155 -66l-54 -61q-57 48 -99 48q-26 0 -43.5 -14t-17.5 -34q0 -28 59 -40q78 -17 114 -43q50 -37 50 -98
q0 -65 -47 -107t-119 -42q-46 0 -82.5 15.5t-86.5 56.5zM116 485l76 136h84l-72 -136h-88z" />
    <glyph glyph-name="Scedilla" unicode="&#x15e;" horiz-adv-x="513" 
d="M263 -13v-59q59 -14 59 -63q0 -31 -20 -51.5t-51 -20.5q-28 0 -62 26l21 28q23 -17 37 -17q15 0 25.5 9.5t10.5 22.5q0 28 -56 37v89q-124 12 -221 112l66 65q43 -54 80 -72q48 -23 97 -23q59 0 97 30t38 77q0 42 -26 65q-20 17 -42 26t-136 44q-71 22 -109 67t-38 107
q0 83 59.5 137t150.5 54q61 0 107.5 -22t93.5 -74l-54 -66q-42 44 -74 61.5t-72 17.5q-51 0 -87.5 -31t-36.5 -74q0 -37 31 -62q16 -14 42 -24t88 -27q99 -28 146 -75t47 -119q0 -83 -58 -136.5t-153 -58.5z" />
    <glyph glyph-name="scedilla" unicode="&#x15f;" horiz-adv-x="393" 
d="M204 -9v-36q59 -13 59 -63q0 -31 -20 -51.5t-50 -20.5q-29 0 -63 27l21 28q22 -18 37 -18t25.5 9.5t10.5 23.5q0 27 -56 36v65q-43 4 -75 19t-76 52l52 64q35 -32 60 -44t56 -12q36 0 60 18.5t24 45.5q0 19 -12.5 31.5t-41.5 20.5q-83 24 -102 32t-38 24q-33 26 -33 77
q0 53 42.5 90.5t103.5 37.5q38 0 72.5 -14.5t83.5 -51.5l-55 -61q-57 48 -99 48q-26 0 -43.5 -14t-17.5 -34q0 -29 59 -40q78 -17 114 -43q50 -37 50 -98t-40.5 -101t-107.5 -47z" />
    <glyph glyph-name="Scaron" unicode="&#x160;" horiz-adv-x="513" 
d="M6 99l66 66q42 -52 82 -73.5t95 -21.5q60 0 97.5 30t37.5 77q0 42 -26 65q-20 17 -42.5 26t-135.5 44q-71 22 -109.5 67t-38.5 107q0 83 60 137t151 54q62 0 107.5 -22t93.5 -74l-54 -66q-42 44 -74.5 61.5t-71.5 17.5q-52 0 -88.5 -31t-36.5 -75q0 -37 31 -62
q17 -14 43 -24t87 -26q100 -28 147 -75t47 -119q0 -85 -63 -140.5t-158 -55.5q-131 0 -247 113zM273 896h81q-41 -92 -60 -152h-115q-17 65 -53 152h76l39 -70z" />
    <glyph glyph-name="scaron" unicode="&#x161;" horiz-adv-x="393" 
d="M17 62l52 64q35 -32 60 -44t56 -12q36 0 60 18.5t24 45.5q0 19 -12.5 31.5t-41.5 20.5q-83 24 -102 32t-38 24q-33 26 -33 77q0 53 42.5 90.5t103.5 37.5q69 0 155 -66l-54 -61q-57 48 -99 48q-26 0 -43.5 -14t-17.5 -34q0 -28 59 -40q78 -17 114 -43q50 -37 50 -98
q0 -65 -47 -107t-119 -42q-46 0 -82.5 15.5t-86.5 56.5zM217 665h81q-37 -84 -59 -152h-115q-20 72 -54 152h76l40 -70z" />
    <glyph glyph-name="Tcommaaccent" unicode="&#x162;" horiz-adv-x="504" 
d="M6 575l26 92h469l-36 -92q-95 5 -114 5h-56v-492q3 -59 3 -65q0 -13 -1 -23h-99l3 49q0 10 0.5 23t1 19.5t0.5 9.5v479h-89q-3 0 -10 -0.5t-20 -1t-23 -0.5zM196 -63l64 41q49 -43 49 -91q0 -55 -64 -109l-50 31q36 47 36 67q0 23 -35 61z" />
    <glyph glyph-name="tcommaaccent" unicode="&#x163;" horiz-adv-x="293" 
d="M8 347v85l55 -2q-1 93 -4 171h98q-7 -90 -7 -171l107 2v-85l-107 2v-164q0 -68 8 -89t33 -21q17 0 48 13l23 -78q-46 -18 -76 -18q-58 0 -90.5 41t-32.5 114v202zM90 -60l64 41q49 -43 49 -91q0 -55 -64 -109l-50 31q36 49 36 67q0 23 -35 61z" />
    <glyph glyph-name="Tcaron" unicode="&#x164;" horiz-adv-x="504" 
d="M6 575l26 92h469l-36 -92q-95 5 -114 5h-56v-492q3 -59 3 -65q0 -13 -1 -23h-99l3 49q0 10 0.5 23t1 19.5t0.5 9.5v479h-89q-3 0 -10 -0.5t-20 -1t-23 -0.5zM285 886h81q-37 -84 -59 -152h-115q-20 72 -54 152h76l40 -70z" />
    <glyph glyph-name="tcaron" unicode="&#x165;" horiz-adv-x="293" 
d="M8 347v85l55 -2q-1 93 -4 171h98q-7 -90 -7 -171l107 2v-85l-107 2v-164q0 -68 8 -89t33 -21q17 0 48 13l23 -78q-46 -18 -76 -18q-58 0 -90.5 41t-32.5 114v202zM196 657l64 41q49 -45 49 -92q0 -55 -64 -108l-50 30q36 50 36 68q0 23 -35 61z" />
    <glyph glyph-name="Umacron" unicode="&#x16a;" horiz-adv-x="683" 
d="M63 667h103q-6 -47 -6 -77v-300q0 -101 24 -142q23 -39 66.5 -61.5t96.5 -22.5t96.5 21.5t66.5 59.5q13 21 16 43t3 87v314l-2 43l-1 35h94q-2 -24 -2 -72v-318q0 -70 -6.5 -107t-25.5 -68q-33 -58 -95.5 -90t-141.5 -32t-143 32t-98 88q-42 70 -42 197v315q0 18 -3 55z
M160 828h364v-78h-364v78z" />
    <glyph glyph-name="umacron" unicode="&#x16b;" horiz-adv-x="493" 
d="M58 433h94q-6 -67 -6 -137v-130q0 -43 25.5 -68.5t68.5 -25.5q39 0 101 39v242q0 51 -3 80h96q-6 -60 -6 -108v-208q0 -34 25 -103l-78 -28l-16 45q-55 -41 -122 -41q-49 0 -91.5 23t-65.5 61q-22 38 -22 109v250zM81 586h330v-78h-330v78z" />
    <glyph glyph-name="Uring" unicode="&#x16e;" horiz-adv-x="683" 
d="M63 667h103q-6 -47 -6 -77v-300q0 -101 24 -142q23 -39 66.5 -61.5t96.5 -22.5t96.5 21.5t66.5 59.5q13 21 16 43t3 87v314l-2 43l-1 35h94q-2 -24 -2 -72v-318q0 -70 -6.5 -107t-25.5 -68q-33 -58 -95.5 -90t-141.5 -32t-143 32t-98 88q-42 70 -42 197v315q0 18 -3 55z
M342 913q39 0 66.5 -27.5t27.5 -66.5t-27.5 -66.5t-66.5 -27.5t-66.5 28t-27.5 67q0 38 28 65.5t66 27.5zM342 861q-17 0 -29.5 -12t-12.5 -29q0 -18 12.5 -30.5t29.5 -12.5t29.5 12.5t12.5 29.5t-12.5 29.5t-29.5 12.5z" />
    <glyph glyph-name="uring" unicode="&#x16f;" horiz-adv-x="493" 
d="M58 433h94q-6 -67 -6 -137v-130q0 -43 25.5 -68.5t68.5 -25.5q39 0 101 39v242q0 51 -3 80h96q-6 -60 -6 -108v-208q0 -34 25 -103l-78 -28l-16 45q-55 -41 -122 -41q-49 0 -91.5 23t-65.5 61q-22 38 -22 109v250zM259 674q39 0 66.5 -27.5t27.5 -66.5t-27.5 -67
t-66.5 -28t-66.5 28t-27.5 68q0 38 28 65.5t66 27.5zM259 622q-17 0 -29.5 -12.5t-12.5 -29.5q0 -18 12.5 -30.5t29.5 -12.5t29.5 12.5t12.5 30.5q0 17 -12.5 29.5t-29.5 12.5z" />
    <glyph glyph-name="Uhungarumlaut" unicode="&#x170;" horiz-adv-x="683" 
d="M63 667h103q-6 -47 -6 -77v-300q0 -101 24 -142q23 -39 66.5 -61.5t96.5 -22.5t96.5 21.5t66.5 59.5q13 21 16 43t3 87v314l-2 43l-1 35h94q-2 -24 -2 -72v-318q0 -70 -6.5 -107t-25.5 -68q-33 -58 -95.5 -90t-141.5 -32t-143 32t-98 88q-42 70 -42 197v315q0 18 -3 55z
M214 726l76 135h84l-72 -135h-88zM397 726l76 135h84l-72 -135h-88z" />
    <glyph glyph-name="uhungarumlaut" unicode="&#x171;" horiz-adv-x="493" 
d="M58 433h94q-6 -67 -6 -137v-130q0 -43 25.5 -68.5t68.5 -25.5q39 0 101 39v242q0 51 -3 80h96q-6 -60 -6 -108v-208q0 -34 25 -103l-78 -28l-16 45q-55 -41 -122 -41q-49 0 -91.5 23t-65.5 61q-22 38 -22 109v250zM110 474l76 136h84l-72 -136h-88zM293 474l76 136h84
l-72 -136h-88z" />
    <glyph glyph-name="Uogonek" unicode="&#x172;" horiz-adv-x="683" 
d="M526 667h94q-2 -24 -2 -72v-318q0 -70 -6.5 -106t-25.5 -69q-32 -60 -81 -82q-20 -9 -107 -34q-65 -19 -65 -74q0 -45 46 -45q19 0 47 19l-9 -36q-29 -26 -69 -26q-42 0 -67 18t-25 49q0 49 52 91q-85 19 -129 45t-71 73q-42 74 -42 197v315q0 18 -3 55h103
q-6 -47 -6 -77v-300q0 -102 24 -143q23 -39 66.5 -61.5t96.5 -22.5t96.5 22t66.5 60q13 21 16 43t3 87v314l-2 43z" />
    <glyph glyph-name="uogonek" unicode="&#x173;" horiz-adv-x="493" 
d="M338 433h96q-6 -60 -6 -108v-208q0 -22 10 -59t17 -43q-41 -29 -57 -48t-16 -38q0 -30 37 -30q25 0 56 21l-9 -76q-30 -18 -64 -18q-41 0 -69 23t-28 57q0 55 63 100l-9 25q-55 -41 -122 -41q-49 0 -91.5 23t-65.5 61q-22 38 -22 109v250h94q-6 -67 -6 -137v-130
q0 -43 25.5 -69t68.5 -26q38 0 101 40v242q0 51 -3 80z" />
    <glyph glyph-name="Ydieresis" unicode="&#x178;" horiz-adv-x="556" 
d="M8 632l85 53l175 -289l166 271h105l-229 -362v-226q0 -23 3 -79h-99l2 32q2 60 2 61v217zM198 875q26 0 45 -18.5t19 -43.5q0 -26 -18.5 -44t-45.5 -18q-25 0 -42.5 18t-17.5 44t17.5 44t42.5 18zM353 877q25 0 43 -17.5t18 -43.5q0 -27 -17.5 -44.5t-44.5 -17.5
q-26 0 -43.5 18t-17.5 46q0 24 18.5 41.5t43.5 17.5z" />
    <glyph glyph-name="Zacute" unicode="&#x179;" horiz-adv-x="561" 
d="M11 33l375 548h-248q-50 0 -85 -4v90h468l13 -30l-381 -553h216q99 0 155 6v-90h-502zM201 729l76 135h83l-71 -135h-88z" />
    <glyph glyph-name="zacute" unicode="&#x17a;" horiz-adv-x="427" 
d="M33 0l-8 32l231 322h-116q-4 0 -46 -2l-50 -4v85h347l11 -28l-237 -325h123q21 0 111 9v-89h-366zM133 485l76 136h84l-72 -136h-88z" />
    <glyph glyph-name="Zdotaccent" unicode="&#x17b;" horiz-adv-x="561" 
d="M11 33l375 548h-248q-50 0 -85 -4v90h468l13 -30l-381 -553h216q99 0 155 6v-90h-502zM278 852q26 0 45 -18.5t19 -43.5q0 -26 -18.5 -44t-45.5 -18q-25 0 -42.5 18t-17.5 44t17.5 44t42.5 18z" />
    <glyph glyph-name="zdotaccent" unicode="&#x17c;" horiz-adv-x="427" 
d="M33 0l-8 32l231 322h-116q-4 0 -46 -2l-50 -4v85h347l11 -28l-237 -325h123q21 0 111 9v-89h-366zM213 609q25 0 43.5 -18.5t18.5 -43.5t-18.5 -43.5t-43.5 -18.5q-26 0 -44 18.5t-18 44.5q0 25 18.5 43t43.5 18z" />
    <glyph glyph-name="Zcaron" unicode="&#x17d;" horiz-adv-x="561" 
d="M11 33l375 548h-248q-50 0 -85 -4v90h468l13 -30l-381 -553h216q99 0 155 6v-90h-502zM306 885h80q-37 -84 -59 -152h-115q-20 72 -54 152h76l40 -70z" />
    <glyph glyph-name="zcaron" unicode="&#x17e;" horiz-adv-x="427" 
d="M33 0l-8 32l231 322h-117q-3 0 -45 -2l-50 -4v85h347l11 -28l-237 -325h123q21 0 111 9v-89h-366zM247 654h81q-41 -92 -60 -152h-115q-20 72 -53 152h76l39 -70z" />
    <glyph glyph-name="florin" unicode="&#x192;" horiz-adv-x="540" 
d="M418 425l-9 -52h-104l-62 -337q-19 -106 -56 -145t-116 -39q-23 0 -54 4l12 64q18 -2 36 -2q43 0 62 28t35 115l57 312h-92l9 52h92l19 102q17 94 54.5 131t114.5 37q28 0 63 -4l-11 -65q-28 4 -45 4q-40 0 -60 -23.5t-31 -81.5l-18 -100h104z" />
    <glyph glyph-name="Scommaaccent" unicode="&#x218;" horiz-adv-x="513" 
d="M6 99l66 66q42 -52 82 -73.5t95 -21.5q60 0 97.5 30t37.5 77q0 42 -26 65q-20 17 -42.5 26t-135.5 44q-71 22 -109.5 67t-38.5 107q0 83 60 137t151 54q62 0 107.5 -22t93.5 -74l-54 -66q-42 44 -74.5 61.5t-71.5 17.5q-52 0 -88.5 -31t-36.5 -75q0 -37 31 -62
q17 -14 43 -24t87 -26q100 -28 147 -75t47 -119q0 -85 -63 -140.5t-158 -55.5q-131 0 -247 113zM192 -101l64 41q49 -43 49 -91q0 -55 -64 -109l-50 31q36 47 36 67q0 23 -35 61z" />
    <glyph glyph-name="scommaaccent" unicode="&#x219;" horiz-adv-x="393" 
d="M17 62l52 64q35 -32 60 -44t56 -12q36 0 60 18.5t24 45.5q0 19 -12.5 31.5t-41.5 20.5q-83 24 -102 32t-38 24q-33 26 -33 77q0 53 42.5 90.5t103.5 37.5q69 0 155 -66l-54 -61q-57 48 -99 48q-26 0 -43.5 -14t-17.5 -34q0 -28 59 -40q78 -17 114 -43q50 -37 50 -98
q0 -65 -47 -107t-119 -42q-46 0 -82.5 15.5t-86.5 56.5zM140 -60l64 41q49 -45 49 -91q0 -55 -64 -109l-50 31q36 49 36 67q0 23 -35 61z" />
    <glyph glyph-name="circumflex" unicode="&#x2c6;" horiz-adv-x="295" 
d="M114 483h-81q37 83 60 152h115q17 -65 53 -152h-76l-40 70z" />
    <glyph glyph-name="caron" unicode="&#x2c7;" horiz-adv-x="295" 
d="M180 635h81q-37 -83 -60 -152h-115q-19 72 -53 152h76l40 -70z" />
    <glyph glyph-name="breve" unicode="&#x2d8;" 
d="M88 618h80q17 -37 34.5 -50.5t47.5 -13.5t47 13.5t34 50.5h80q-10 -52 -37 -84q-48 -57 -125 -57t-124 57q-27 32 -37 84z" />
    <glyph glyph-name="dotaccent" unicode="&#x2d9;" 
d="M250 609q26 0 44 -18.5t18 -43.5t-18 -43.5t-44 -18.5t-44 18.5t-18 44.5q0 25 18.5 43t43.5 18z" />
    <glyph glyph-name="ring" unicode="&#x2da;" 
d="M263 674q39 0 66.5 -27.5t27.5 -66.5t-27.5 -67t-66.5 -28t-66.5 28t-27.5 68q0 38 28 65.5t66 27.5zM263 622q-17 0 -29.5 -12.5t-12.5 -29.5q0 -18 12.5 -30.5t29.5 -12.5t29.5 12.5t12.5 30.5q0 17 -12.5 29.5t-29.5 12.5z" />
    <glyph glyph-name="ogonek" unicode="&#x2db;" 
d="M241 0h74q-73 -48 -73 -85q0 -30 37 -30q24 0 55 20l-8 -75q-30 -18 -65 -18q-40 0 -68 23t-28 56q0 32 17 56.5t59 52.5z" />
    <glyph glyph-name="tilde" unicode="&#x2dc;" horiz-adv-x="389" 
d="M113 487l-80 5q9 104 91 104q22 0 95 -24q11 -4 21 -4q21 0 27 29l88 -6q-5 -55 -27 -80t-65 -25q-18 0 -30 3t-67 23q-13 5 -24 5t-17.5 -6.5t-11.5 -23.5z" />
    <glyph glyph-name="hungarumlaut" unicode="&#x2dd;" 
d="M65 452l76 136h84l-72 -136h-88zM248 452l77 136h83l-72 -136h-88z" />
    <glyph glyph-name="endash" unicode="&#x2013;" horiz-adv-x="551" 
d="M33 189v84h484l1 -84h-485z" />
    <glyph glyph-name="emdash" unicode="&#x2014;" horiz-adv-x="913" 
d="M64 225v84h784l1 -84h-785z" />
    <glyph glyph-name="quoteleft" unicode="&#x2018;" horiz-adv-x="222" 
d="M94 669l68 -46q-37 -47 -37 -78q0 -14 7.5 -28.5t35.5 -54.5l-55 -43q-72 72 -72 139q0 62 53 111z" />
    <glyph glyph-name="quoteright" unicode="&#x2019;" horiz-adv-x="222" 
d="M46 623l69 46q53 -49 53 -111q0 -67 -72 -139l-55 43q28 40 35.5 54.5t7.5 28.5q0 30 -38 78z" />
    <glyph glyph-name="quotesinglbase" unicode="&#x201a;" horiz-adv-x="222" 
d="M52 72l69 46q53 -49 53 -111q0 -67 -72 -139l-55 43q28 40 35.5 54.5t7.5 28.5q0 30 -38 78z" />
    <glyph glyph-name="quotedblleft" unicode="&#x201c;" horiz-adv-x="386" 
d="M94 669l68 -46q-37 -47 -37 -78q0 -14 7.5 -28.5t35.5 -54.5l-55 -43q-72 72 -72 139q0 62 53 111zM259 669l69 -46q-38 -48 -38 -78q0 -13 7.5 -27.5t35.5 -55.5l-55 -43q-72 72 -72 139q0 62 53 111z" />
    <glyph glyph-name="quotedblright" unicode="&#x201d;" horiz-adv-x="386" 
d="M212 623l68 46q53 -49 53 -111q0 -67 -72 -139l-55 43q28 41 35.5 55.5t7.5 27.5q0 31 -37 78zM46 623l69 46q53 -49 53 -111q0 -67 -72 -139l-55 43q28 40 35.5 54.5t7.5 28.5q0 30 -38 78z" />
    <glyph glyph-name="quotedblbase" unicode="&#x201e;" horiz-adv-x="386" 
d="M209 68l68 46q53 -50 53 -111q0 -67 -72 -140l-55 43q28 41 35.5 55.5t7.5 27.5q0 31 -37 79zM43 68l69 46q53 -49 53 -111q0 -67 -72 -140l-55 43q28 41 35.5 55t7.5 28q0 30 -38 79z" />
    <glyph glyph-name="dagger" unicode="&#x2020;" horiz-adv-x="512" 
d="M480 464v-73h-185v-530h-81v530h-183v73h183v203h81v-203h185z" />
    <glyph glyph-name="daggerdbl" unicode="&#x2021;" horiz-adv-x="512" 
d="M480 487v-71h-184v-302h184v-71h-184v-182h-81v182h-183v71h183v302h-183v71h183v180h81v-180h184z" />
    <glyph glyph-name="bullet" unicode="&#x2022;" horiz-adv-x="340" 
d="M171 423q34 0 58.5 -25t24.5 -59q0 -35 -25 -59.5t-59 -24.5t-59 24.5t-25 59.5t25 59.5t60 24.5z" />
    <glyph glyph-name="ellipsis" unicode="&#x2026;" horiz-adv-x="627" 
d="M116 112q25 0 43 -19t18 -46q0 -25 -16.5 -41t-42.5 -16q-28 0 -45.5 17.5t-17.5 44.5q0 26 17.5 43t43.5 17zM315 112q25 0 43 -19t18 -46q0 -25 -16.5 -41t-42.5 -16q-28 0 -45.5 17.5t-17.5 44.5q0 26 17.5 43t43.5 17zM513 112q25 0 43 -19t18 -46q0 -25 -16.5 -41
t-42.5 -16q-28 0 -45.5 17.5t-17.5 44.5q0 26 17.5 43t43.5 17z" />
    <glyph glyph-name="perthousand" unicode="&#x2030;" horiz-adv-x="1116" 
d="M194 680q62 0 108.5 -60.5t46.5 -142.5q0 -81 -46 -140t-110 -59q-65 0 -109.5 59.5t-44.5 145.5q0 78 47 137.5t108 59.5zM194 612q-39 0 -63.5 -38t-24.5 -99q0 -51 26.5 -90.5t61.5 -39.5q37 0 61.5 37.5t24.5 93.5q0 59 -24.5 97.5t-61.5 38.5zM581 382
q65 0 111.5 -59t46.5 -142t-46.5 -142.5t-110.5 -59.5q-60 0 -106 59t-46 137q0 87 43.5 147t107.5 60zM581 315q-34 0 -59.5 -37.5t-25.5 -87.5q0 -62 26 -103.5t65 -41.5q33 0 59.5 42.5t26.5 95.5t-27.5 92.5t-64.5 39.5zM208 -6h-88q110 156 252 372l60 90q35 51 86 129
l54 82h87q-92 -133 -152 -221q-66 -100 -99 -149q-40 -60 -150 -224q-34 -52 -50 -79zM933 382q65 0 111.5 -59t46.5 -142t-46.5 -142.5t-110.5 -59.5q-60 0 -106 59t-46 137q0 87 43.5 147t107.5 60zM933 315q-34 0 -59.5 -37.5t-25.5 -87.5q0 -62 26 -103.5t65 -41.5
q33 0 59.5 42.5t26.5 95.5t-27.5 92.5t-64.5 39.5z" />
    <glyph glyph-name="guilsinglleft" unicode="&#x2039;" horiz-adv-x="324" 
d="M141 214l130 -166l-65 -47l-166 212l166 221l65 -48z" />
    <glyph glyph-name="guilsinglright" unicode="&#x203a;" horiz-adv-x="324" 
d="M182 214l-129 172l65 48l166 -221l-166 -212l-65 47z" />
    <glyph glyph-name="fraction" unicode="&#x2044;" horiz-adv-x="178" 
d="M312 658l-392 -658h-53l392 658h53z" />
    <glyph glyph-name="Euro" unicode="&#x20ac;" horiz-adv-x="540" 
d="M16 419h59q25 125 93 190t174 65q99 0 191 -66l-34 -82q-53 37 -88.5 51t-75.5 14q-61 0 -103 -44.5t-58 -127.5h280l-24 -62h-267q-1 -29 -3 -51h242l-23 -64h-210q30 -84 55 -119q37 -53 115 -53q35 0 67.5 11t92.5 43v-97q-71 -41 -164 -41q-138 0 -204 111
q-29 51 -61 145h-79l22 64h50v15q0 13 4 36h-74z" />
    <glyph glyph-name="trademark" unicode="&#x2122;" horiz-adv-x="855" 
d="M805 667v-400h-57v341l-137 -341h-37l-133 341v-341h-58v400h91l119 -290l123 290h89zM336 667v-52h-130v-348h-64v348h-132v52h326z" />
    <glyph glyph-name="partialdiff" unicode="&#x2202;" 
d="M95 633l16 43q72 -5 121 -29q114 -55 168 -149q64 -112 64 -233q0 -126 -60.5 -201t-162.5 -75q-92 0 -156 65t-64 159q0 92 63.5 157.5t153.5 65.5q77 0 147 -63q-4 49 -36 107.5t-70 84.5q-96 64 -184 68zM248 373q-66 0 -111 -46.5t-45 -114.5q0 -66 44.5 -113
t106.5 -47q63 0 106.5 47t43.5 116q0 67 -41.5 112.5t-103.5 45.5z" />
    <glyph glyph-name="Delta" unicode="&#x2206;" horiz-adv-x="667" 
d="M5 0l280 667h91l286 -667h-657zM104 61h457l-230 536z" />
    <glyph glyph-name="summation" unicode="&#x2211;" horiz-adv-x="667" 
d="M602 750v-227h-58l-7 173h-431l256 -425l-258 -467h444l5 172h59v-226h-589v58l260 465l-260 421v56h579z" />
    <glyph glyph-name="minus" unicode="&#x2212;" horiz-adv-x="713" 
d="M64 225v84h584l1 -84h-585z" />
    <glyph glyph-name="radical" unicode="&#x221a;" horiz-adv-x="667" 
d="M637 789v-54h-142l-287 -750l-108 319h-71v54h115l68 -222l237 653h188z" />
    <glyph glyph-name="notequal" unicode="&#x2260;" 
d="M275 449l60 122l59 -24l-49 -98h149v-63h-181l-52 -104h233v-64h-265l-66 -134l-58 24l54 110h-152v64h184l52 104h-236v63h268z" />
    <glyph glyph-name="lessequal" unicode="&#x2264;" 
d="M490 611v-71l-397 -171l397 -169v-70l-481 202v72zM490 106v-76h-481v76h481z" />
    <glyph glyph-name="greaterequal" unicode="&#x2265;" 
d="M9 130v70l397 172l-397 168v71l481 -202v-72zM490 106v-76h-481v76h481z" />
    <glyph glyph-name="lozenge" unicode="&#x25ca;" horiz-adv-x="667" 
d="M333 682l253 -347l-253 -350l-251 350zM333 587l-175 -252l175 -251l178 251z" />
    <glyph glyph-name="commaaccent" unicode="&#xf6c3;" horiz-adv-x="174" 
d="M30 -60l65 41q49 -45 49 -91q0 -55 -64 -109l-50 31q36 48 36 67q0 24 -36 61z" />
    <glyph glyph-name="nbspace" horiz-adv-x="200" 
 />
    <glyph glyph-name="sfthyphen" horiz-adv-x="312" 
d="M41 210v92q20 -1 56 -1h115q38 0 57 1l1 -95q-27 4 -51 4h-125q-36 0 -53 -1z" />
    </font>
</defs>
</svg>
